<?xml version="1.0" encoding="UTF-8"?>
<svg width="700pt" height="700pt" version="1.1" viewBox="0 0 700 700" xmlns="http://www.w3.org/2000/svg" xmlns:xlink="http://www.w3.org/1999/xlink">
 <g>
  <path d="m271.66 80.473 8.5117-4.1992 9.4648 0.10937-1.4023-9.3516 3.082-8.9609-9.3516-1.5664-7.5625-5.6562-4.3672 8.3438-7.7266 5.4336 6.6055 6.7734z" fill="white"/>
  <path d="m395.41 488.1-7.5586-5.7148-4.4219 8.4023-7.7305 5.4297 6.6094 6.7773 2.8008 9.0703 8.4531-4.1992 9.4648 0.11328-1.3438-9.3516 3.0234-8.9609z" fill="white"/>
  <path d="m354.59 326.2c11.059-1.0859 21.363-6.1133 29.031-14.164 7.6641-8.0469 12.188-18.582 12.738-29.684 0.55078-11.102-2.9062-22.031-9.7383-30.801l13.215-13.105v0.003907c1.1914-1.0078 1.9102-2.4648 1.9805-4.0234 0.070313-1.5586-0.51172-3.0781-1.6055-4.1875-1.0977-1.1094-2.6055-1.7148-4.1641-1.6641-1.5586 0.046875-3.0273 0.74609-4.0508 1.9219l-13.273 13.105c-9.5742-7.5898-21.758-11.09-33.902-9.7422-12.141 1.3438-23.262 7.4297-30.945 16.93-7.6797 9.5-11.305 21.648-10.078 33.805 0.85938 8.6992 4.1836 16.973 9.5742 23.855l-13.215 13.102c-1.0586 1.0508-1.6562 2.4844-1.6562 3.9766 0 1.4922 0.59766 2.9258 1.6562 3.9766 1.0586 1.0469 2.4883 1.6328 3.9766 1.625 1.4688-0.007812 2.875-0.58984 3.918-1.625l13.273-13.105c8.1602 6.4727 18.258 10.004 28.672 10.027 1.5117 0 3.0234-0.11328 4.5938-0.22656zm-39.648-42.727c-0.90625-9.2969 1.9062-18.57 7.8281-25.793 5.9219-7.2227 14.461-11.801 23.754-12.734h3.4727c7.4492 0.011719 14.703 2.3867 20.719 6.7734l-49.336 48.945c-3.6094-5.0703-5.832-10.996-6.4375-17.191zm14.391 24.922 49.281-48.887v-0.003906c4.8398 6.7227 7.1484 14.938 6.5273 23.195-0.625 8.2617-4.1445 16.035-9.9375 21.953-5.793 5.918-13.492 9.6055-21.734 10.402-8.5898 0.82031-17.184-1.5508-24.137-6.6641z" fill="white"/>
  <path d="m344.4 376.6c0.92187-0.007812 1.8242-0.23828 2.6328-0.67187 4.5938-2.4062 9.2969-5.0977 13.887-8.0078h0.003906c2.6289-1.6875 3.3906-5.1836 1.707-7.8125-1.6875-2.6289-5.1836-3.3945-7.8125-1.7109-4.3672 2.7422-8.793 5.2656-13.16 7.5586v0.003907c-2.4102 1.1562-3.668 3.8555-3 6.4453s3.0742 4.3477 5.7422 4.1953z" fill="white"/>
  <path d="m416.3 317.41c1.6445-0.011719 3.2031-0.75 4.2539-2.0156 3.4727-4.0898 6.7773-8.2891 9.9102-12.543h0.003906c0.87891-1.2031 1.2422-2.7031 1.0117-4.1758s-1.0391-2.7891-2.2461-3.6641c-2.4922-1.793-5.9648-1.2422-7.7812 1.2305-3.0234 4.0312-6.1602 8.0625-9.4648 11.984-0.96094 1.1367-1.4258 2.6094-1.3008 4.0898s0.83594 2.8516 1.9727 3.8086c1.0352 0.82422 2.3164 1.2812 3.6406 1.2852z" fill="white"/>
  <path d="m403.2 334.21c2.2773-2.2773 4.5156-4.5742 6.7188-6.8867h0.003906c1.1445-1.0508 1.8008-2.5312 1.8125-4.0859s-0.62109-3.0469-1.7539-4.1133c-1.1289-1.0664-2.6523-1.6172-4.2031-1.5195-1.5547 0.10156-2.9922 0.84375-3.9766 2.0469-2.0703 2.1836-4.2578 4.3672-6.4414 6.5508l-4.3672 4.1992c-2.1719 2.1875-2.1719 5.7148 0 7.8984 2.1055 2.25 5.6367 2.375 7.8945 0.27734z" fill="white"/>
  <path d="m254.8 306.04c1.793-4.4805 3.8633-9.1289 6.1602-13.777v0.003906c0.80078-1.3359 1.0117-2.9414 0.58203-4.4375-0.42969-1.4961-1.4648-2.7461-2.8555-3.4492-1.3867-0.70312-3.0078-0.79297-4.4688-0.25391-1.457 0.53906-2.6289 1.6602-3.2266 3.0977-2.5195 4.9297-4.7031 9.9102-6.6094 14.727v0.003906c-0.55078 1.3789-0.52734 2.9219 0.058594 4.2891 0.58984 1.3672 1.6953 2.4414 3.0781 2.9883 0.66016 0.26172 1.3633 0.39453 2.0742 0.39453 2.3086-0.007812 4.375-1.4297 5.207-3.5859z" fill="white"/>
  <path d="m258.78 273.22c-1.6406 2.5742-0.91797 5.9844 1.6211 7.6719 2.6328 1.5977 6.0586 0.77344 7.6719-1.8477 2.6328-4.2578 5.6016-8.5117 8.3984-12.711h0.003906c1.4805-2.5 0.80469-5.7148-1.5586-7.4062-2.3633-1.6914-5.625-1.2969-7.5156 0.91016-2.9102 4.3672-5.8789 8.9609-8.6211 13.383z" fill="white"/>
  <path d="m434.73 292.21c1.9258 0.015625 3.7227-0.95703 4.7617-2.5742 2.9102-4.6484 5.6016-9.2969 8.0625-13.945 0.73438-1.3164 0.90234-2.875 0.47266-4.3203-0.42969-1.4453-1.4258-2.6562-2.7617-3.3555-1.3359-0.70312-2.8945-0.83594-4.332-0.37109-1.4336 0.46484-2.6211 1.4883-3.2891 2.8398-2.2969 4.3672-4.8711 8.793-7.6172 13.16-1.543 2.5781-0.77734 5.9141 1.7383 7.5586 0.87109 0.61328 1.9023 0.96094 2.9648 1.0078z" fill="white"/>
  <path d="m281.62 256.26c1.6953 0.003907 3.3008-0.75781 4.3672-2.0742 3.1914-3.8633 6.5508-7.7266 10.023-11.199 2.1484-2.2734 2.0508-5.8594-0.22266-8.0078-2.2734-2.1484-5.8594-2.0508-8.0078 0.22266-3.5859 3.9219-7.1133 7.9531-10.473 12.039-1.3555 1.6719-1.6328 3.9766-0.71484 5.9219 0.91797 1.9453 2.875 3.1953 5.0273 3.207z" fill="white"/>
  <path d="m426.27 179.87c0.46484 0.054687 0.93359 0.054687 1.3984 0 2.6211 0.082031 4.9453-1.6602 5.6016-4.1992 0.37109-1.4414 0.15625-2.9727-0.59766-4.2539-0.75781-1.2812-1.9922-2.207-3.4375-2.5781-5.4922-1.3555-11.137-2.0117-16.797-1.9609h-0.28125c-3.0938 0-5.6016 2.5078-5.6016 5.6016 0 1.4844 0.58984 2.9102 1.6406 3.9609 1.0508 1.0469 2.4766 1.6367 3.9609 1.6367 4.7617-0.03125 9.5078 0.57031 14.113 1.793z" fill="white"/>
  <path d="m347.98 193.2c0.98438 1.8008 2.875 2.918 4.9258 2.9141 0.94141 0.023438 1.8711-0.21094 2.6914-0.67188 4.5352-2.4648 9.1289-4.7031 13.609-6.7188l-0.003907-0.003906c2.832-1.25 4.1094-4.5625 2.8555-7.3906-1.25-2.8281-4.5625-4.1094-7.3906-2.8555-4.7617 2.1289-9.6328 4.5352-14.449 7.168-2.6953 1.4766-3.6914 4.8516-2.2383 7.5586z" fill="white"/>
  <path d="m327.94 372.46c-4.6055 1.9648-9.3164 3.668-14.113 5.0938-1.4844 0.21094-2.8281 1-3.7305 2.1953-0.90234 1.1992-1.293 2.7031-1.0859 4.1914 0.43359 3.0898 3.293 5.2461 6.3828 4.8164 0.53906 0.078125 1.0859 0.078125 1.625 0 5.168-1.6133 10.254-3.4805 15.23-5.6016 2.8633-1.1914 4.2148-4.4766 3.0273-7.3359-1.1914-2.8594-4.4766-4.2148-7.3359-3.0234z" fill="white"/>
  <path d="m322 210.84c1.0703 1.4258 2.7539 2.2578 4.5352 2.2383 1.1914-0.011719 2.3516-0.40234 3.3047-1.1172 4.1445-3.0781 8.3438-5.9922 12.543-8.7344v-0.003906c1.3672-0.75 2.3594-2.0352 2.7383-3.5469s0.10938-3.1133-0.74219-4.4219c-0.85547-1.3047-2.2109-2.1953-3.75-2.457-1.5352-0.26172-3.1133 0.125-4.3477 1.0742-4.4258 2.8555-8.793 5.9375-13.105 9.1289-1.1953 0.88281-1.9922 2.207-2.2148 3.6758-0.21875 1.4727 0.15234 2.9688 1.0391 4.1641z" fill="white"/>
  <path d="m299.6 380.8c-4.7969 0.74219-9.6562 1.0234-14.504 0.83984-3.0938 0-5.6016 2.5078-5.6016 5.5977 0 1.4883 0.58984 2.9102 1.6406 3.9609s2.4727 1.6406 3.9609 1.6406h3.1367-0.003906c4.2734 0.03125 8.5391-0.25 12.77-0.83984 3.0938-0.46484 5.2227-3.3477 4.7617-6.4414-0.46484-3.0898-3.3477-5.2227-6.4414-4.7578z" fill="white"/>
  <path d="m395.64 168.67c-5.3633 1.0078-10.656 2.3555-15.848 4.0312-2.6133 0.85938-4.2148 3.4844-3.7812 6.1992 0.42969 2.7148 2.7695 4.7148 5.5156 4.7227 0.57422 0.10156 1.1641 0.10156 1.7383 0 4.7188-1.5117 9.5234-2.7461 14.391-3.6953 3.0938-0.55859 5.1484-3.5156 4.5898-6.6094-0.55469-3.0938-3.5117-5.1484-6.6055-4.5938z" fill="white"/>
  <path d="m302.85 233.35c1.457-0.019531 2.8516-0.57812 3.9219-1.5664 3.6406-3.5273 7.4492-7 11.199-10.305 2.3945-1.9805 2.7344-5.5273 0.75391-7.9258-1.9766-2.3945-5.5273-2.7344-7.9219-0.75391-3.9766 3.4141-7.9531 7.0547-11.816 10.695-1.0586 1.0508-1.6562 2.4844-1.6562 3.9766 0 1.4922 0.59766 2.9258 1.6562 3.9766 0.98047 1.125 2.375 1.8086 3.8633 1.9023z" fill="white"/>
  <path d="m379.51 340.54c-3.9766 3.2461-8.0078 6.3828-12.098 9.3516-1.2031 0.875-2.0117 2.1953-2.2422 3.6641-0.23047 1.4727 0.13281 2.9766 1.0117 4.1758 1.0586 1.4492 2.7422 2.3008 4.5352 2.2969 1.1875 0.003906 2.3438-0.36719 3.3047-1.0625 4.2578-3.0781 8.5117-6.3828 12.602-9.8008 1.25-0.90625 2.0703-2.293 2.2656-3.8242 0.19531-1.5352-0.25-3.082-1.2344-4.2734-0.98047-1.1914-2.4141-1.9258-3.957-2.0234-1.543-0.10156-3.0586 0.44141-4.1875 1.4961z" fill="white"/>
  <path d="m271.04 379.34c-4.2812-1.3906-8.2578-3.5977-11.703-6.4961-1.1289-0.96484-2.5938-1.4414-4.0742-1.3281-1.4805 0.11719-2.8555 0.81641-3.8203 1.9453-2.0117 2.3516-1.7344 5.8867 0.61328 7.8945 4.5312 3.8398 9.7617 6.7695 15.402 8.625 0.59375 0.078125 1.1953 0.078125 1.7891 0 3.0938 0.49609 6.0039-1.6133 6.4961-4.7031 0.49609-3.0938-1.6094-6.0039-4.7031-6.4961z" fill="white"/>
  <path d="m456.06 238.84c-1.4336-0.41406-2.9727-0.23828-4.2734 0.48828-1.3047 0.72266-2.2656 1.9414-2.668 3.375-1.418 4.7969-3.1016 9.5078-5.043 14.113-0.57422 1.375-0.57812 2.918-0.007813 4.2969 0.56641 1.375 1.6562 2.4688 3.0352 3.0391 0.69531 0.26562 1.4375 0.39844 2.1836 0.39062 2.2461 0 4.2734-1.3477 5.1523-3.4141 2.1289-5.0156 3.9961-10.137 5.5977-15.344 0.41016-1.4492 0.21875-3.0039-0.52734-4.3086-0.75-1.3047-1.9922-2.2578-3.4492-2.6367z" fill="white"/>
  <path d="m251.27 362.32c-1.9805-4.1641-3.2461-8.6328-3.7539-13.215-0.38672-3.0938-3.207-5.2891-6.3008-4.9023-3.0898 0.38672-5.2852 3.207-4.8984 6.3008 0.69141 5.8242 2.3164 11.496 4.8164 16.801 0.94141 1.9219 2.8984 3.1406 5.0391 3.1367 0.85156 0.003906 1.6953-0.19141 2.4648-0.5625 1.3633-0.64062 2.4102-1.8047 2.9062-3.2266s0.39453-2.9844-0.27344-4.332z" fill="white"/>
  <path d="m246.06 313.6c-1.4375-0.375-2.9688-0.16016-4.25 0.59766-1.2852 0.75391-2.2109 1.9922-2.582 3.4336-1.4141 5.3281-2.4062 10.758-2.9648 16.238-0.29297 3.0781 1.9609 5.8086 5.0391 6.1055h0.55859c2.8867 0.015626 5.3125-2.168 5.6016-5.0391 0.5-4.9023 1.3984-9.75 2.6875-14.504 0.37109-1.4492 0.14844-2.9883-0.61719-4.2695-0.76953-1.2852-2.0195-2.207-3.4727-2.5625z" fill="white"/>
  <path d="m404.32 141.68c-0.39453-1.4336-1.3398-2.6523-2.6328-3.3867-1.2891-0.73438-2.8203-0.92578-4.2539-0.53125-13.746 3.9023-27.066 9.1719-39.762 15.734-1.3242 0.67969-2.3203 1.8594-2.7734 3.2812-0.45313 1.418-0.32031 2.957 0.36719 4.2773 0.96094 1.8633 2.8867 3.0312 4.9805 3.0234 0.88281 0.015625 1.75-0.19531 2.5234-0.61328 12.008-6.2266 24.617-11.215 37.629-14.898 1.4336-0.39062 2.6523-1.3359 3.3906-2.6289 0.73438-1.293 0.92578-2.8242 0.53125-4.2578z" fill="white"/>
  <path d="m444.86 303.74c-8.1836 10.945-17.031 21.383-26.488 31.25-2.1719 2.1836-2.1719 5.7109 0 7.8945 1.0391 1 2.4219 1.5625 3.8633 1.5703 1.5273-0.007812 2.9805-0.63281 4.0352-1.7383 9.8125-10.168 18.961-20.961 27.383-32.312 1.0234-1.1758 1.5117-2.7266 1.3477-4.2773-0.16797-1.5508-0.97656-2.9609-2.2266-3.8945-1.2539-0.92969-2.8359-1.2969-4.3711-1.0117-1.5352 0.28906-2.8789 1.1992-3.7109 2.5195z" fill="white"/>
  <path d="m235.76 274.85c0.91406 0.54297 1.957 0.83203 3.0234 0.83984 1.9219 0.015625 3.7188-0.95703 4.7578-2.5742 7.3555-11.492 15.477-22.473 24.305-32.875 0.96484-1.1289 1.4414-2.5938 1.3281-4.0742-0.11719-1.4805-0.81641-2.8555-1.9453-3.8203-1.1328-0.95703-2.6055-1.4258-4.0859-1.3008s-2.8516 0.83594-3.8086 1.9727c-9.1641 10.777-17.598 22.152-25.258 34.047-0.81641 1.2539-1.0977 2.7812-0.78125 4.2461 0.3125 1.4609 1.2031 2.7344 2.4648 3.5391z" fill="white"/>
  <path d="m321.44 175.67c-11.551 8.2422-22.582 17.18-33.043 26.77-1.0586 1.0508-1.6562 2.4805-1.6562 3.9727 0 1.4961 0.59766 2.9258 1.6562 3.9766 2.1875 2.1719 5.7148 2.1719 7.8984 0 10-9.1836 20.566-17.73 31.641-25.59 2.5195-1.793 3.1094-5.293 1.3164-7.8125-1.7969-2.5195-5.293-3.1094-7.8125-1.3164z" fill="white"/>
  <path d="m325.98 408.07c-0.55078-1.3789-1.625-2.4883-2.9922-3.0742-1.3633-0.58984-2.9062-0.60938-4.2891-0.058594-12.414 5.1406-25.438 8.6602-38.75 10.469-3.0938 0.1875-5.4492 2.8438-5.2656 5.9375 0.1875 3.0938 2.8438 5.4492 5.9375 5.2656h0.67187c14.277-1.9102 28.246-5.6758 41.551-11.203 1.3945-0.54688 2.5156-1.6328 3.1016-3.0117 0.58984-1.3789 0.60156-2.9336 0.035156-4.3242z" fill="white"/>
  <path d="m471.69 277.54c2.0859 0.015625 4.0039-1.1289 4.9844-2.9688 6.7812-12.484 12.297-25.613 16.465-39.199 0.41406-1.4258 0.24609-2.957-0.46484-4.2617-0.71484-1.3008-1.918-2.2656-3.3438-2.6797-2.9531-0.87109-6.0547 0.80469-6.9453 3.75-3.9297 12.949-9.1641 25.461-15.621 37.352-1.4492 2.7227-0.42188 6.1016 2.293 7.5625 0.82812 0.35938 1.7344 0.51172 2.6328 0.44531z" fill="white"/>
  <path d="m357.89 396.93c1.0312-0.007813 2.0391-0.30078 2.9141-0.83984 12.066-7.418 23.609-15.652 34.551-24.641 2.3672-1.957 2.7188-5.4531 0.78516-7.8398-0.94141-1.1562-2.3047-1.8867-3.7852-2.0312-1.4805-0.14844-2.9609 0.30078-4.1133 1.2461-10.566 8.5664-21.68 16.441-33.262 23.574-2.1211 1.3164-3.1172 3.875-2.4414 6.2773 0.67578 2.4023 2.8594 4.0664 5.3516 4.0859z" fill="white"/>
  <path d="m241.75 411.6c-5.7812-2.3008-11.027-5.7695-15.402-10.195-4.3203-4.4414-7.6953-9.7227-9.9102-15.512-0.53906-1.3906-1.6094-2.5117-2.9766-3.1094-1.3672-0.60156-2.918-0.62891-4.3047-0.082031-2.8477 1.1445-4.2461 4.3633-3.1367 7.2266 5.5039 14.637 16.934 26.27 31.473 32.031 0.67188 0.28516 1.3945 0.4375 2.1289 0.44531 2.6992 0.035156 5.043-1.8633 5.5625-4.5156 0.52344-2.6523-0.92188-5.2969-3.4336-6.2891z" fill="white"/>
  <path d="m473.59 158.54c8.6172 9.3203 13.539 21.469 13.832 34.16 0.20312 2.9375 2.6523 5.2148 5.5977 5.207h0.33594c1.4883-0.085938 2.8789-0.75781 3.8633-1.875 0.98828-1.1133 1.4922-2.5742 1.4023-4.0586-0.37891-15.363-6.3516-30.059-16.801-41.328-11.043-10.676-25.594-16.965-40.938-17.695-3.0898-0.26562-5.8125 2.0312-6.0742 5.1211-0.26172 3.0938 2.0312 5.8164 5.125 6.0781 12.582 0.59766 24.531 5.707 33.656 14.391z" fill="white"/>
  <path d="m510.16 261.69c0.74609 0.375 1.5703 0.56641 2.4062 0.55859 2.168-0.015625 4.1328-1.2812 5.043-3.2461 13.195-25.988 20.59-54.535 21.672-83.664 0-24.695-7.5039-45.414-21.672-59.863-1.0547-1.0625-2.4844-1.6562-3.9766-1.6562-1.4922 0-2.9258 0.59375-3.9766 1.6562-2.1719 2.1836-2.1719 5.7109 0 7.8945 12.266 12.488 18.48 30.016 18.48 52.023-1.1172 27.469-8.1641 54.367-20.664 78.848-1.3164 2.8008-0.10938 6.1367 2.6875 7.4492z" fill="white"/>
  <path d="m290.59 178.81c1.3125-0.015625 2.582-0.48828 3.582-1.3438 32.062-27.969 69.055-49.715 109.09-64.121 2.8398 5.0508 7.9258 8.4414 13.68 9.1211 5.7539 0.68359 11.492-1.4297 15.434-5.6758 3.9414-4.25 5.6172-10.125 4.5078-15.812-1.1094-5.6914-4.8711-10.508-10.121-12.965-5.25-2.4531-11.355-2.2539-16.434 0.53906s-8.5156 7.8438-9.2539 13.594c-41.914 14.844-80.641 37.496-114.12 66.75-1.1367 0.95703-1.8477 2.3281-1.9727 3.8086-0.12891 1.4844 0.33984 2.9531 1.3008 4.0898 1.0664 1.2773 2.6445 2.0195 4.3125 2.0156z" fill="white"/>
  <path d="m169.06 425.6c0.92969 1.9414 2.8867 3.1836 5.043 3.1914 0.83594 0.007812 1.6602-0.1875 2.4062-0.5625 2.7969-1.3125 4.0039-4.6484 2.6875-7.4453-5.0547-11.262-7.5391-23.504-7.2773-35.84 0-28.617 10.473-62.441 30.352-97.777 1.5078-2.6914 0.55859-6.0977-2.1289-7.6172-1.2969-0.74219-2.8398-0.93359-4.2812-0.53516-1.4414 0.39844-2.6602 1.3594-3.3906 2.6641-20.777 37.016-31.754 72.801-31.754 103.27-0.27734 14.004 2.5742 27.891 8.3438 40.656z" fill="white"/>
  <path d="m421.73 368.31c-37.574 35.168-80.191 62.383-120.06 76.609-2.9219 1.0508-4.4375 4.2695-3.3867 7.1953 1.0508 2.9219 4.2734 4.4375 7.1953 3.3867 41.215-14.785 85.23-42.785 123.93-78.961h-0.003906c2.2734-2.1172 2.3984-5.6797 0.28125-7.9492-2.1172-2.2734-5.6797-2.3984-7.9531-0.28125z" fill="white"/>
  <path d="m550.43 83.215c-17.363-17.641-42.73-27.215-73.418-27.215-20.559 0.32031-40.961 3.6758-60.535 9.9688-2.9453 0.89062-4.6211 3.9922-3.7539 6.9414 0.42969 1.4297 1.4062 2.6289 2.7227 3.332 1.3125 0.70703 2.8516 0.85547 4.2773 0.42187 18.527-5.9492 37.832-9.1406 57.289-9.4648 28 0 50.008 7.9531 65.465 23.688 15.457 15.734 22.398 36.457 22.398 63.223 0 58.129-35.672 132.66-95.199 199.36v0.003906c-2.0664 2.2891-1.8906 5.8203 0.39062 7.8945 1.0273 0.93359 2.3672 1.4531 3.7539 1.457 1.5977 0.011719 3.1289-0.66016 4.1992-1.8477 61.602-68.711 98.336-146.05 98.336-206.86-0.22266-29.176-9.0703-53.762-25.926-70.898z" fill="white"/>
  <path d="m580.55 279.55c5.1914-0.035156 10.117-2.2852 13.543-6.1836 3.4258-3.8945 5.0234-9.0703 4.3945-14.223-0.62891-5.1484-3.4258-9.7852-7.6875-12.746 19.266-41.328 29.793-81.594 29.793-117.6 0-36.004-10.473-64.117-30.465-84.5-19.992-20.387-50.906-32.145-87.473-32.145-82.039 0-188.16 54.152-276.92 141.23-90.328 88.648-146.38 195.05-146.38 277.82 0 35 10.527 64.289 30.52 84.672 19.992 20.383 50.902 32.145 87.473 32.145 82.039 0 188.16-54.152 276.92-141.23 39.062-37.957 72.719-81.109 100.02-128.24 2.0117 0.71094 4.1367 1.0508 6.2695 1.0078zm-114.12 119.06c-86.746 85.117-189.84 138.04-269.08 138.04-33.992 0-60.703-9.6875-79.465-28.785-18.758-19.094-27.328-44.352-27.328-76.664 0-79.688 54.824-183.01 143.02-269.64 86.746-85.285 189.84-138.21 269.08-138.21 33.992 0 60.703 9.6875 79.465 28.785 18.145 18.535 27.328 44.352 27.328 76.832 0 34.719-10.359 73.863-29.398 114.24h-0.003906c-4.3008 0.14453-8.4062 1.8125-11.59 4.707-3.1836 2.8945-5.2383 6.8242-5.793 11.094-0.55078 4.2656 0.42969 8.5898 2.7695 12.199-26.934 46.855-60.254 89.734-99.008 127.4z" fill="white"/>
  <path d="m207.2 479.25c-3.207 0.007812-6.3516 0.86719-9.1172 2.4922s-5.0508 3.9531-6.6172 6.75c-12.836-3.4453-24.539-10.203-33.938-19.602-14.895-15.176-22.398-36.457-22.398-63.223 0-42.504 19.207-94.527 54.152-146.5 1.6641-2.5977 0.91406-6.0547-1.6797-7.7266-1.2344-0.83594-2.7461-1.1445-4.207-0.85938-1.4609 0.28125-2.7461 1.1367-3.5781 2.3711-36.176 53.762-56 108.02-56 152.71 0 29.398 8.8477 53.984 25.703 71.062 10.938 11 24.633 18.852 39.648 22.738 0.53516 4.6641 2.8594 8.9375 6.4805 11.926 3.625 2.9883 8.2617 4.4531 12.945 4.0898 4.6797-0.35938 9.0391-2.5234 12.16-6.0312 3.1172-3.5078 4.7578-8.0898 4.5703-12.781-0.1875-4.6914-2.1875-9.1289-5.5781-12.375-3.3906-3.25-7.9062-5.0586-12.602-5.0469z" fill="white"/>
  <path d="m209.11 318.02c-3.1406 9.1055-5.4453 18.477-6.8906 28-0.42969 3.0625 1.6992 5.8945 4.7617 6.3281h0.78516c2.8086 0.027344 5.2031-2.0312 5.5977-4.8164 1.3281-8.8594 3.4844-17.578 6.4414-26.039 5.8633 0.035156 11.391-2.7422 14.863-7.4688 3.4766-4.7227 4.4727-10.828 2.6914-16.414-1.7852-5.5898-6.1406-9.9805-11.711-11.82-5.5664-1.8359-11.68-0.89453-16.441 2.5352-4.7578 3.4297-7.5859 8.9297-7.6055 14.793-0.019531 5.8672 2.7695 11.387 7.5078 14.848z" fill="white"/>
  <path d="m475.05 206.25c0-4.8242-1.918-9.4531-5.3281-12.867-3.4141-3.4141-8.043-5.332-12.871-5.332h-0.61719c-1.625-2.5117-3.5039-4.8594-5.5977-7-1.7227-1.7461-3.5977-3.3398-5.6016-4.7578-2.4922-1.793-5.9648-1.2461-7.7852 1.2305-0.87109 1.2109-1.2266 2.7148-0.98438 4.1875 0.24219 1.4727 1.0586 2.7891 2.2734 3.6523 1.4688 1.0703 2.8555 2.2461 4.1445 3.5273 0.95703 1.0391 1.8359 2.1445 2.6328 3.3047-3.582 2.8516-5.9492 6.9531-6.625 11.477-0.67578 4.5273 0.38672 9.1406 2.9766 12.914 2.5938 3.7734 6.5156 6.4258 10.984 7.418 0 1.3984 0 2.8008-0.44922 4.2578-0.20703 1.4766 0.1875 2.9766 1.0898 4.1641 0.90625 1.1914 2.2461 1.9688 3.7266 2.1641h0.78516c2.8281 0.023437 5.2305-2.0703 5.5977-4.875 0.28125-2.2383 0.50391-4.4805 0.61719-6.6641 3.2773-1.418 6.0664-3.7656 8.0273-6.75 1.9609-2.9844 3.0039-6.4766 3.0039-10.051z" fill="white"/>
  <path d="m117.66 213.75c1.9961-0.042968 3.9727-0.36328 5.8789-0.95312 5.9375-1.293 10.809-5.5117 12.938-11.199 3.0039-7.1172 6.5234-14.004 10.527-20.609-0.85547 2.0312-0.44141 4.3789 1.0625 5.9922 1.0664 1.1172 2.5469 1.7461 4.0898 1.7344 1.4141-0.003906 2.7734-0.54297 3.8086-1.5117l40.77-38.586-11.199-4.8164 28.672-61.039-50.734 38.473-1.6797-4.8164-0.003906 0.003906c-0.089844-0.21875-0.20312-0.42578-0.33594-0.61719-0.15625-0.33594-0.34375-0.65625-0.5625-0.95312-0.23438-0.32031-0.51953-0.60156-0.83984-0.83984 0 0 0-0.33594-0.44922-0.44922h-0.33594 0.003906c-0.32812-0.20312-0.6875-0.35547-1.0664-0.44531h-1.0078c-0.33594-0.027344-0.67188-0.027344-1.0078 0-0.39062-0.027344-0.78516-0.027344-1.1758 0h-0.33594s-0.33594 0-0.55859 0.33594l-1.0078 0.55859c-0.28906 0.23438-0.55469 0.49609-0.78516 0.78516 0 0-0.33594 0-0.50391 0.50391l-33.602 50.398c-0.82812 1.2383-1.1289 2.7578-0.83203 4.2188 0.29297 1.4609 1.1562 2.7461 2.4023 3.5664 0.93359 0.60156 2.0234 0.91406 3.1367 0.89453 1.8594 0.003907 3.6016-0.91797 4.6445-2.4609l27.328-41.047 3.0234 8.793 26.77-20.328-14.449 30.066 6.3281 2.6875-28.168 26.77c-0.43359 0.44141-0.79297 0.95312-1.0625 1.5117 3.9219-6.8867 8.1758-14.113 11.594-19.77l16.801-28-63.562 52.195c-2.2969 2.1289-9.8555 9.6328-9.8008 16.801-0.046876 2.8516 1.1367 5.5859 3.25 7.5039 3.3164 2.957 7.5938 4.6094 12.039 4.6484z" fill="white"/>
  <path d="m517.44 378.34c-2.6523 1.9414-4.457 4.8281-5.043 8.0625-0.19922 2.0664 0.51562 4.1133 1.9609 5.6016 1.8906 1.8711 4.4531 2.9023 7.1133 2.8555 0.76172 0.082031 1.5312 0.082031 2.2969 0 3.2031-0.51172 5.9258-2.625 7.2227-5.5977 0.61719-1.3984 4.5352-7.4492 7.8398-12.207l18.367-27.387-39.199 28.504z" fill="white"/>
  <path d="m508.09 444.7c-2.9961 1.3906-5.3398 3.875-6.5547 6.9453-0.48047 1.9023-0.17578 3.9219 0.83984 5.5977 1.9688 2.8359 5.2305 4.5 8.6797 4.4258 3.293 0.082032 6.3984-1.5234 8.2344-4.2578 3.1758-3.6641 6.5586-7.1406 10.137-10.414l23.52-22.398-44.801 19.938z" fill="white"/>
  <path d="m576.69 354.43c-2.5547 2.0547-4.2031 5.0312-4.5898 8.2852-0.15234 2.1016 0.64844 4.1562 2.1836 5.6016 1.8594 1.6641 4.2812 2.5625 6.7734 2.5195 0.90625-0.003906 1.8086-0.11719 2.6875-0.33594 3.3359-0.76953 6.0195-3.2383 7.0586-6.4961 0.55859-1.457 4.1992-7.6719 7.2812-12.602l17.359-27.441-38.414 30.184z" fill="white"/>
  <path d="m108.53 275.91 8.457-4.1992 9.4648 0.16797-1.3438-9.4062 3.0234-8.9609-9.2969-1.5664-7.5586-5.6562-4.4258 8.3438-7.7266 5.4883 6.6055 6.7188z" fill="white"/>
  <use x="70" y="644" xlink:href="#v" fill="white"/>
  <use x="90.550781" y="644" xlink:href="#c" fill="white"/>
  <use x="104.359375" y="644" xlink:href="#a" fill="white"/>
  <use x="123.347656" y="644" xlink:href="#f" fill="white"/>
  <use x="142.242188" y="644" xlink:href="#b" fill="white"/>
  <use x="155.628906" y="644" xlink:href="#a" fill="white"/>
  <use x="174.617188" y="644" xlink:href="#l" fill="white"/>
  <use x="204.410156" y="644" xlink:href="#e" fill="white"/>
  <use x="224.453125" y="644" xlink:href="#k" fill="white"/>
  <use x="252.453125" y="644" xlink:href="#j" fill="white"/>
  <use x="275.695312" y="644" xlink:href="#i" fill="white"/>
  <use x="295.628906" y="644" xlink:href="#u" fill="white"/>
  <use x="305.226562" y="644" xlink:href="#h" fill="white"/>
  <use x="325.160156" y="644" xlink:href="#g" fill="white"/>
  <use x="341.824219" y="644" xlink:href="#t" fill="white"/>
  <use x="359.664062" y="644" xlink:href="#f" fill="white"/>
  <use x="378.5625" y="644" xlink:href="#e" fill="white"/>
  <use x="398.601562" y="644" xlink:href="#g" fill="white"/>
  <use x="70" y="672" xlink:href="#s" fill="white"/>
  <use x="82.183594" y="672" xlink:href="#c" fill="white"/>
  <use x="95.992188" y="672" xlink:href="#d" fill="white"/>
  <use x="115.226562" y="672" xlink:href="#r" fill="white"/>
  <use x="154.152344" y="672" xlink:href="#b" fill="white"/>
  <use x="167.535156" y="672" xlink:href="#i" fill="white"/>
  <use x="187.46875" y="672" xlink:href="#a" fill="white"/>
  <use x="216.207031" y="672" xlink:href="#q" fill="white"/>
  <use x="239.640625" y="672" xlink:href="#d" fill="white"/>
  <use x="258.878906" y="672" xlink:href="#p" fill="white"/>
  <use x="278.8125" y="672" xlink:href="#h" fill="white"/>
  <use x="308.492188" y="672" xlink:href="#o" fill="white"/>
  <use x="329.015625" y="672" xlink:href="#c" fill="white"/>
  <use x="342.820312" y="672" xlink:href="#d" fill="white"/>
  <use x="362.058594" y="672" xlink:href="#n" fill="white"/>
  <use x="371.65625" y="672" xlink:href="#a" fill="white"/>
  <use x="390.648438" y="672" xlink:href="#m" fill="white"/>
  <use x="407.242188" y="672" xlink:href="#b" fill="white"/>
 </g>
</svg>
