<?xml version="1.0" encoding="UTF-8"?>
<svg width="700pt" height="700pt" version="1.1" viewBox="0 0 700 700" xmlns="http://www.w3.org/2000/svg" xmlns:xlink="http://www.w3.org/1999/xlink">
 <g>
  <path d="m495.96 285.86c0-11.246-1.4766-22.348-4.2383-33.129l26.137-26.137c16.828-16.832 16.828-44.223 0-61.055-16.832-16.832-44.227-16.836-61.051-0.003906l-2.8672 2.8633 11.871 11.887 2.8711-2.8672c10.285-10.281 27.012-10.281 37.301 0 10.277 10.281 10.277 27.016 0 37.301l-216.59 216.58c-4.9805 4.9805-11.602 7.7227-18.645 7.7227-7.0469 0-13.668-2.7422-18.648-7.7227-10.281-10.281-10.281-27.016 0.003906-37.301l5.2656-5.2695-11.887-11.879-5.2617 5.2695c-16.832 16.832-16.832 44.223 0 61.055 8.1523 8.1523 18.996 12.645 30.527 12.645 11.535 0 22.375-4.4922 30.523-12.645l28.352-28.352c10.785 2.7617 21.895 4.2422 33.129 4.2422 73.449 0.003906 133.2-59.754 133.2-133.2zm-18.379-18.984c1.0234 6.2461 1.582 12.586 1.582 18.984 0 64.184-52.223 116.41-116.41 116.41-6.3906 0-12.723-0.57422-18.973-1.5977z" fill="white"/>
  <path d="m178.12 285.86c0 16.715 2.2344 33.281 6.6406 49.238l16.191-4.4688c-4.0039-14.504-6.0352-29.566-6.0352-44.77 0-30.488 8.2578-60.34 23.871-86.324l-14.398-8.6562c-17.188 28.602-26.27 61.445-26.27 94.98z" fill="white"/>
  <path d="m545.15 257.02-16.594 2.6016c1.3516 8.6289 2.0391 17.457 2.0391 26.23 0 22.414-4.3438 44.18-12.914 64.676l15.504 6.4805c9.4297-22.566 14.211-46.508 14.211-71.156-0.003906-9.6445-0.75781-19.344-2.2461-28.832z" fill="white"/>
  <path d="m325.29 241.67c-10.629 10.637-10.629 27.938 0.003907 38.562 5.1523 5.1523 11.996 7.9883 19.281 7.9883 7.2852 0 14.133-2.8398 19.281-7.9883l78.852-78.852c7.9531 7.4961 14.938 16.113 20.59 25.766l14.496-8.4922c-23.836-40.711-67.914-66.004-115.04-66.004-73.449 0-133.21 59.754-133.21 133.21 0 49.145 26.914 94.137 70.242 117.41l7.9492-14.797c-12.445-6.6875-23.301-15.457-32.324-25.695l24.406-24.402c14.734-14.738 14.734-38.711 0-53.441-14.738-14.734-38.711-14.734-53.438 0l-0.015624 0.015625c0.47656-61.457 48.812-111.71 109.5-115.27l-20.188 20.184c-4.3516 4.3516-6.75 10.141-6.75 16.297 0 6.1602 2.3984 11.949 6.75 16.297 1.1758 1.1797 1.8242 2.75 1.8242 4.418 0 1.6641-0.64844 3.2305-1.8242 4.4141zm-37.34 55.137c8.1836 8.1836 8.1836 21.5 0 29.688l-22.77 22.766c-8.3242-12.812-14.102-27.219-16.883-42.484l9.9688-9.9688c8.1797-8.1758 21.492-8.1836 29.684 0zm59.617-53.652c8.9883-8.9805 8.9883-23.605 0-32.59-1.1797-1.1758-1.8281-2.7422-1.8281-4.4141 0-1.6641 0.64844-3.2305 1.8281-4.4141l31.156-31.156c18.426 2.5781 35.852 9.5859 50.891 20.133l-77.641 77.645c-3.9453 3.9453-10.848 3.9531-14.801 0-4.082-4.082-4.082-10.727 0-14.809z" fill="white"/>
  <path d="m259.65 130.61c16.133 0 29.254-13.121 29.254-29.254 0-16.133-13.121-29.258-29.254-29.258-16.133 0-29.254 13.125-29.254 29.258 0 16.133 13.121 29.254 29.254 29.254zm0-41.707c6.8672 0 12.453 5.5859 12.453 12.457 0 6.8672-5.5859 12.453-12.453 12.453-6.8672 0-12.453-5.5859-12.453-12.453 0-6.8711 5.5859-12.457 12.453-12.457z" fill="white"/>
  <path d="m482.15 416.22c-16.133 0-29.254 13.121-29.254 29.254 0 16.133 13.121 29.254 29.254 29.254 16.133 0 29.258-13.121 29.258-29.254 0-16.133-13.125-29.254-29.258-29.254zm0 41.703c-6.8672 0-12.453-5.5859-12.453-12.453s5.5859-12.453 12.453-12.453c6.8711 0 12.457 5.5859 12.457 12.453s-5.5859 12.453-12.457 12.453z" fill="white"/>
  <path d="m541.1 46.957h-16.801c0 16.211-13.191 29.398-29.398 29.398v16.801c16.211 0 29.398 13.188 29.398 29.395h16.801c0-16.211 13.191-29.395 29.398-29.395v-16.801c-16.211 0-29.398-13.191-29.398-29.398zm-8.4023 49.117c-3.0898-4.3984-6.9219-8.2305-11.32-11.32 4.3984-3.0898 8.2305-6.9219 11.32-11.32 3.0898 4.3984 6.9219 8.2305 11.32 11.32-4.3984 3.0898-8.2305 6.9219-11.32 11.32z" fill="white"/>
  <path d="m175.7 450.16h-16.801c0 16.211-13.191 29.398-29.398 29.398v16.801c16.211 0 29.398 13.188 29.398 29.395h16.801c0-16.211 13.191-29.395 29.398-29.395v-16.801c-16.207 0-29.398-13.191-29.398-29.398zm-8.3984 49.117c-3.0898-4.3984-6.9219-8.2305-11.32-11.32 4.3984-3.0898 8.2305-6.9219 11.32-11.32 3.0898 4.3984 6.9219 8.2305 11.32 11.32-4.3984 3.0938-8.2305 6.9219-11.32 11.32z" fill="white"/>
  <path d="m431.91 483.65h16.801v16.801h-16.801z" fill="white"/>
  <path d="m188.31 97.25h16.801v16.801h-16.801z" fill="white"/>
  <path d="m305.91 55.25h16.801v16.801h-16.801z" fill="white"/>
  <path d="m217.71 34.25h16.801v16.801h-16.801z" fill="white"/>
  <path d="m536.91 437.45h16.801v16.801h-16.801z" fill="white"/>
  <use x="70" y="644" xlink:href="#i" fill="white"/>
  <use x="90.550781" y="644" xlink:href="#d" fill="white"/>
  <use x="104.359375" y="644" xlink:href="#c" fill="white"/>
  <use x="123.347656" y="644" xlink:href="#b" fill="white"/>
  <use x="142.242188" y="644" xlink:href="#a" fill="white"/>
  <use x="155.628906" y="644" xlink:href="#c" fill="white"/>
  <use x="174.617188" y="644" xlink:href="#l" fill="white"/>
  <use x="204.410156" y="644" xlink:href="#f" fill="white"/>
  <use x="224.453125" y="644" xlink:href="#k" fill="white"/>
  <use x="252.453125" y="644" xlink:href="#j" fill="white"/>
  <use x="271.578125" y="644" xlink:href="#h" fill="white"/>
  <use x="281.175781" y="644" xlink:href="#g" fill="white"/>
  <use x="290.773438" y="644" xlink:href="#v" fill="white"/>
  <use x="307.4375" y="644" xlink:href="#b" fill="white"/>
  <use x="326.335938" y="644" xlink:href="#f" fill="white"/>
  <use x="346.375" y="644" xlink:href="#c" fill="white"/>
  <use x="365.367188" y="644" xlink:href="#a" fill="white"/>
  <use x="378.75" y="644" xlink:href="#a" fill="white"/>
  <use x="392.136719" y="644" xlink:href="#b" fill="white"/>
  <use x="420.78125" y="644" xlink:href="#i" fill="white"/>
  <use x="441.328125" y="644" xlink:href="#b" fill="white"/>
  <use x="460.222656" y="644" xlink:href="#h" fill="white"/>
  <use x="469.820312" y="644" xlink:href="#b" fill="white"/>
  <use x="488.714844" y="644" xlink:href="#f" fill="white"/>
  <use x="508.757812" y="644" xlink:href="#d" fill="white"/>
  <use x="522.566406" y="644" xlink:href="#g" fill="white"/>
  <use x="532.164062" y="644" xlink:href="#a" fill="white"/>
  <use x="545.546875" y="644" xlink:href="#a" fill="white"/>
  <use x="558.933594" y="644" xlink:href="#e" fill="white"/>
  <use x="70" y="672" xlink:href="#u" fill="white"/>
  <use x="82.183594" y="672" xlink:href="#d" fill="white"/>
  <use x="95.992188" y="672" xlink:href="#e" fill="white"/>
  <use x="115.226562" y="672" xlink:href="#t" fill="white"/>
  <use x="154.152344" y="672" xlink:href="#a" fill="white"/>
  <use x="167.535156" y="672" xlink:href="#s" fill="white"/>
  <use x="187.46875" y="672" xlink:href="#c" fill="white"/>
  <use x="216.207031" y="672" xlink:href="#r" fill="white"/>
  <use x="239.640625" y="672" xlink:href="#e" fill="white"/>
  <use x="258.878906" y="672" xlink:href="#q" fill="white"/>
  <use x="278.8125" y="672" xlink:href="#p" fill="white"/>
  <use x="308.492188" y="672" xlink:href="#o" fill="white"/>
  <use x="329.015625" y="672" xlink:href="#d" fill="white"/>
  <use x="342.820312" y="672" xlink:href="#e" fill="white"/>
  <use x="362.058594" y="672" xlink:href="#n" fill="white"/>
  <use x="371.65625" y="672" xlink:href="#c" fill="white"/>
  <use x="390.648438" y="672" xlink:href="#m" fill="white"/>
  <use x="407.242188" y="672" xlink:href="#a" fill="white"/>
 </g>
</svg>
