<?xml version="1.0" encoding="UTF-8"?>
<svg width="700pt" height="700pt" version="1.1" viewBox="0 0 700 700" xmlns="http://www.w3.org/2000/svg" xmlns:xlink="http://www.w3.org/1999/xlink">
 <g>
  <path d="m360.98 122.59 7.4648-22.086 18.918-9.0469-18.918-9.043-7.4648-22.086-7.4609 22.086-18.922 9.043 18.922 9.0469z" fill="#FFF3E3"/>
  <path d="m392.58 229.43c0 6.6562-5.3945 12.051-12.051 12.051-6.6523 0-12.047-5.3945-12.047-12.051 0-6.6523 5.3945-12.047 12.047-12.047 6.6562 0 12.051 5.3945 12.051 12.047" fill="#FFF3E3"/>
  <path d="m179.2 191.6c0 6.6562-5.3945 12.051-12.051 12.051-6.6523 0-12.047-5.3945-12.047-12.051 0-6.6523 5.3945-12.047 12.047-12.047 6.6562 0 12.051 5.3945 12.051 12.047" fill="#FFF3E3"/>
  <path d="m540.33 262.05c0 6.6523-5.3945 12.047-12.047 12.047-6.6562 0-12.051-5.3945-12.051-12.047 0-6.6562 5.3945-12.047 12.051-12.047 6.6523 0 12.047 5.3906 12.047 12.047" fill="#FFF3E3"/>
  <path d="m290.08 488.24c0 6.6523-5.3945 12.047-12.047 12.047-6.6562 0-12.051-5.3945-12.051-12.047 0-6.6562 5.3945-12.047 12.051-12.047 6.6523 0 12.047 5.3906 12.047 12.047" fill="#FFF3E3"/>
  <path d="m554.48 460.43c0 5.7031-4.6211 10.328-10.328 10.328-5.7031 0-10.324-4.625-10.324-10.328s4.6211-10.324 10.324-10.324c5.707 0 10.328 4.6211 10.328 10.324" fill="#FFF3E3"/>
  <path d="m510.37 225.02c0 5.7031-4.625 10.328-10.328 10.328s-10.328-4.625-10.328-10.328c0-5.7031 4.625-10.328 10.328-10.328s10.328 4.625 10.328 10.328" fill="#FFF3E3"/>
  <path d="m221.44 393.51c0 4.4375-3.5977 8.0312-8.0312 8.0312-4.4375 0-8.0312-3.5938-8.0312-8.0312 0-4.4336 3.5938-8.0312 8.0312-8.0312 4.4336 0 8.0312 3.5977 8.0312 8.0312" fill="#FFF3E3"/>
  <path d="m218.23 213.39c0 4.4336-3.5977 8.0312-8.0312 8.0312-4.4375 0-8.0312-3.5977-8.0312-8.0312 0-4.4375 3.5938-8.0312 8.0312-8.0312 4.4336 0 8.0312 3.5938 8.0312 8.0312" fill="#FFF3E3"/>
  <path d="m218.23 287.71c0 4.4375-3.5977 8.0312-8.0312 8.0312-4.4375 0-8.0312-3.5938-8.0312-8.0312 0-4.4336 3.5938-8.0312 8.0312-8.0312 4.4336 0 8.0312 3.5977 8.0312 8.0312" fill="#FFF3E3"/>
  <path d="m465.96 283.98c0 4.4336-3.5938 8.0312-8.0312 8.0312-4.4336 0-8.0312-3.5977-8.0312-8.0312 0-4.4375 3.5977-8.0312 8.0312-8.0312 4.4375 0 8.0312 3.5938 8.0312 8.0312" fill="#FFF3E3"/>
  <path d="m311.36 456.62c0 4.4336-3.5938 8.0312-8.0312 8.0312-4.4336 0-8.0312-3.5977-8.0312-8.0312 0-4.4375 3.5977-8.0312 8.0312-8.0312 4.4375 0 8.0312 3.5938 8.0312 8.0312" fill="#FFF3E3"/>
  <path d="m521.4 196.78 5.9102-17.496 14.992-7.168-14.992-7.1641-5.9102-17.5-5.9102 17.5-14.992 7.1641 14.992 7.168z" fill="#FFF3E3"/>
  <path d="m172.9 315.39-8.0898 23.934-20.504 9.8047 20.504 9.8008 8.0898 23.938 8.0859-23.938 20.504-9.8008-20.504-9.8047z" fill="#FFF3E3"/>
  <path d="m235.86 459.01-5.0508 14.957-12.812 6.125 12.812 6.125 5.0508 14.953 5.0547-14.953 12.812-6.125-12.812-6.125z" fill="#FFF3E3"/>
  <path d="m271.38 383.84 8.9102-4.2617-8.9102-4.2617-3.5156-10.402-3.5156 10.402-8.9102 4.2617 8.9102 4.2617 3.5156 10.402z" fill="#FFF3E3"/>
  <path d="m554.82 351.09c-13.148 0-24.66 7.1211-30.898 17.707l-140.41-54.152c0.10547-0.92969 0.17578-1.8711 0.17578-2.832 0-13.559-11.031-24.586-24.586-24.586-2.0742 0-4.0742 0.28516-6 0.76953l-16.832-30.418c5.6172-4.9922 9.168-12.266 9.168-20.359 0-15.02-12.219-27.242-27.242-27.242-1.0742 0-2.1367 0.070313-3.1797 0.19141l-20.164-56.891c6.5859-4.418 10.934-11.926 10.934-20.434 0-13.559-11.031-24.586-24.586-24.586-9.9609 0-18.543 5.9688-22.402 14.504l-78.996-13.141c-0.37109-19.445-16.297-35.156-35.828-35.156-19.766 0-35.848 16.082-35.848 35.848s16.082 35.848 35.848 35.848c15.852 0 29.324-10.348 34.043-24.641l78.684 13.09c0.91016 12.734 11.535 22.82 24.496 22.82 0.78516 0 1.5547-0.046876 2.3203-0.11719l20.156 56.871c-7.6367 4.832-12.723 13.348-12.723 23.031 0 15.02 12.219 27.242 27.242 27.242 2.6172 0 5.1445-0.37891 7.5391-1.0703l16.781 30.324c-4.9023 4.4961-8 10.934-8 18.098 0 9.5234 5.4531 17.777 13.387 21.863l-10.086 42.727c-14.867 0.17969-26.91 12.324-26.91 27.23 0 15.02 12.219 27.242 27.242 27.242 9.0352 0 17.051-4.4219 22.008-11.215l90.391 35.961c-0.20703 1.3555-0.31641 2.7461-0.31641 4.1602 0 15.02 12.219 27.242 27.242 27.242 15.02 0 27.242-12.219 27.242-27.242 0-5.0234-1.3711-9.7266-3.75-13.77l32.543-30.281c5.9648 4.4297 13.344 7.0547 21.324 7.0547 19.766 0 35.848-16.082 35.848-35.848-0.003906-19.762-16.086-35.844-35.852-35.844zm-410.85-216.96c-13.133 0-23.816-10.684-23.816-23.816 0-13.133 10.684-23.816 23.816-23.816s23.816 10.684 23.816 23.816c0 13.133-10.684 23.816-23.816 23.816zm137.23 11.27c-6.9219 0-12.555-5.6328-12.555-12.555 0-6.9258 5.6328-12.555 12.555-12.555 6.9258 0 12.555 5.6328 12.555 12.555 0.003906 6.9219-5.6289 12.555-12.555 12.555zm36.996 107.03c-8.3867 0-15.211-6.8242-15.211-15.211s6.8242-15.211 15.211-15.211c8.3867 0 15.211 6.8242 15.211 15.211s-6.8242 15.211-15.211 15.211zm28.352 59.383c0-6.9258 5.6328-12.555 12.555-12.555 6.9258 0 12.555 5.6328 12.555 12.555 0 6.9258-5.6328 12.555-12.555 12.555s-12.555-5.6328-12.555-12.555zm-8.4023 107.03c-8.3867 0-15.211-6.8242-15.211-15.211 0-8.3867 6.8242-15.211 15.211-15.211s15.211 6.8242 15.211 15.211c0 8.3867-6.8242 15.211-15.211 15.211zm139.32 56.148c-8.3867 0-15.211-6.8242-15.211-15.211s6.8242-15.211 15.211-15.211c8.3867 0 15.211 6.8242 15.211 15.211s-6.8242 15.211-15.211 15.211zm15.266-37.762c-4.3555-2.957-9.6133-4.6875-15.262-4.6875-9.332 0-17.582 4.7188-22.492 11.895l-90.051-35.828c0.30078-1.6133 0.46484-3.2773 0.46484-4.9766 0-10.938-6.4805-20.383-15.805-24.715l10.043-42.547c8.1055-0.17188 15.25-4.2773 19.605-10.488l140.42 54.156c-0.4375 2.2344-0.67188 4.5352-0.67188 6.8945 0 7.4492 2.2852 14.371 6.1875 20.109zm62.094-26.48c-13.133 0-23.816-10.684-23.816-23.816 0-13.133 10.684-23.816 23.816-23.816 13.133 0 23.816 10.684 23.816 23.816 0 13.133-10.684 23.816-23.816 23.816z" fill="#FFF3E3"/>
  <use x="70" y="592.8125" xlink:href="#t" fill="#FFF3E3"/>
  <use x="78.027344" y="592.8125" xlink:href="#c" fill="#FFF3E3"/>
  <use x="83.421875" y="592.8125" xlink:href="#a" fill="#FFF3E3"/>
  <use x="90.839844" y="592.8125" xlink:href="#g" fill="#FFF3E3"/>
  <use x="98.21875" y="592.8125" xlink:href="#b" fill="#FFF3E3"/>
  <use x="103.449219" y="592.8125" xlink:href="#a" fill="#FFF3E3"/>
  <use x="110.867188" y="592.8125" xlink:href="#j" fill="#FFF3E3"/>
  <use x="122.503906" y="592.8125" xlink:href="#i" fill="#FFF3E3"/>
  <use x="130.332031" y="592.8125" xlink:href="#h" fill="#FFF3E3"/>
  <use x="141.269531" y="592.8125" xlink:href="#d" fill="#FFF3E3"/>
  <use x="149.054688" y="592.8125" xlink:href="#f" fill="#FFF3E3"/>
  <use x="156.84375" y="592.8125" xlink:href="#a" fill="#FFF3E3"/>
  <use x="164.261719" y="592.8125" xlink:href="#d" fill="#FFF3E3"/>
  <use x="172.046875" y="592.8125" xlink:href="#s" fill="#FFF3E3"/>
  <use x="179.878906" y="592.8125" xlink:href="#c" fill="#FFF3E3"/>
  <use x="185.269531" y="592.8125" xlink:href="#f" fill="#FFF3E3"/>
  <use x="193.058594" y="592.8125" xlink:href="#b" fill="#FFF3E3"/>
  <use x="198.285156" y="592.8125" xlink:href="#g" fill="#FFF3E3"/>
  <use x="205.667969" y="592.8125" xlink:href="#r" fill="#FFF3E3"/>
  <use x="70" y="603.75" xlink:href="#q" fill="#FFF3E3"/>
  <use x="74.757812" y="603.75" xlink:href="#c" fill="#FFF3E3"/>
  <use x="80.152344" y="603.75" xlink:href="#e" fill="#FFF3E3"/>
  <use x="87.667969" y="603.75" xlink:href="#p" fill="#FFF3E3"/>
  <use x="102.871094" y="603.75" xlink:href="#b" fill="#FFF3E3"/>
  <use x="108.101562" y="603.75" xlink:href="#o" fill="#FFF3E3"/>
  <use x="115.886719" y="603.75" xlink:href="#a" fill="#FFF3E3"/>
  <use x="127.113281" y="603.75" xlink:href="#n" fill="#FFF3E3"/>
  <use x="136.265625" y="603.75" xlink:href="#e" fill="#FFF3E3"/>
  <use x="143.78125" y="603.75" xlink:href="#f" fill="#FFF3E3"/>
  <use x="151.566406" y="603.75" xlink:href="#d" fill="#FFF3E3"/>
  <use x="163.160156" y="603.75" xlink:href="#m" fill="#FFF3E3"/>
  <use x="171.175781" y="603.75" xlink:href="#c" fill="#FFF3E3"/>
  <use x="176.570312" y="603.75" xlink:href="#e" fill="#FFF3E3"/>
  <use x="184.085938" y="603.75" xlink:href="#l" fill="#FFF3E3"/>
  <use x="187.835937" y="603.75" xlink:href="#a" fill="#FFF3E3"/>
  <use x="195.253906" y="603.75" xlink:href="#k" fill="#FFF3E3"/>
  <use x="201.734375" y="603.75" xlink:href="#b" fill="#FFF3E3"/>
 </g>
</svg>
