<?xml version="1.0" encoding="UTF-8"?>
<svg width="700pt" height="700pt" version="1.1" viewBox="0 0 700 700" xmlns="http://www.w3.org/2000/svg" xmlns:xlink="http://www.w3.org/1999/xlink">
 <g>
  <path d="m131.47 148.52c3.5312 3.4297 8.3203 5.2539 13.238 5.0469 9.7695-0.76172 19.207-3.8984 27.492-9.1367 3.3867-1.8828 6.8945-4.0586 10.5-6.4297 14.473 6.25 30.859 6.3555 45.41 0.29297 14.551-6.0586 26.02-17.77 31.777-32.441 5.7578-14.672 5.3086-31.055-1.2383-45.395 1.2539-2.0195 2.4219-4.0039 3.5-5.957 10.621-19.117 11.996-32.812 4.0938-40.723-12.117-12.129-36.023 0-53.934 12.328l-0.64844 0.46484h0.003906c-2.0078-0.21484-4.0234-0.32031-6.0391-0.31641-15.441 0.019531-30.242 6.1602-41.16 17.078-10.918 10.918-17.062 25.723-17.078 41.16 0 1.6094 0.11328 3.1953 0.23438 4.7617-12.828 17.449-29.688 45.727-16.152 59.266zm114.89-64.027c-0.011719 10.805-4.3047 21.16-11.941 28.801-7.6406 7.6367-17.996 11.938-28.797 11.949-1.7031-0.066406-3.4023-0.23828-5.082-0.51562 7.332-5.9922 14.742-12.672 21.98-19.906h-0.003907c8.2695-8.2383 16.035-16.965 23.258-26.137 0.33984 1.9219 0.53516 3.8633 0.58594 5.8086zm7.2266-58.676c1.043 2.4688-0.78906 9.1172-5.8711 18.543h0.003906c-4.1133-4.3438-8.8672-8.0312-14.098-10.93 6.0117-3.9805 12.832-6.582 19.969-7.6133zm-47.965 17.938c12.703 0.039062 24.652 6.0273 32.289 16.18-8.3281 11.598-17.617 22.473-27.766 32.516-8.8867 8.9453-18.398 17.25-28.465 24.848-9.3398-6.7656-15.367-17.184-16.574-28.656-1.207-11.473 2.5195-22.914 10.246-31.477 7.7305-8.5664 18.734-13.438 30.27-13.41zm-51.711 67.426c3.207 6.1758 7.4922 11.723 12.652 16.391-6.4961 5.043-14.289 8.1406-22.473 8.9336-0.89844-2.1602 0.95312-10.922 9.8203-25.324z" fill="white"/>
  <path d="m449.43 180.57c5.0039 4.9258 7.168 12.051 5.75 18.926l17.148 3.4297c2.5078-12.621-1.4531-25.66-10.559-34.75-9.1055-9.0898-22.148-13.031-34.766-10.504l3.4297 17.148c6.8984-1.4414 14.055 0.72656 18.996 5.75z" fill="white"/>
  <path d="m343.82 300.06 17.496-17.496 12.375 12.375-17.496 17.496z" fill="white"/>
  <path d="m378.81 265.06 52.5-52.5 12.375 12.375-52.5 52.5z" fill="white"/>
  <path d="m365.23 452.15 5.3555-5.3555 26.066 23.457h-0.003907c1.6094 1.4492 3.6953 2.25 5.8555 2.25 1.2266 0.003906 2.4414-0.25781 3.5625-0.76172 3.1523-1.4062 5.1875-4.5352 5.1875-7.9883v-162.63l84.938-84.938v0.003906c1.2188-1.2227 2.0508-2.7773 2.3867-4.4727l12.293-61.418c1.7383-8.6836-0.98047-17.66-7.2422-23.922s-15.238-8.9805-23.922-7.2422l-61.453 12.293c-1.6953 0.33594-3.25 1.168-4.4727 2.3867l-51.285 51.285h0.003906c26.73-51.094 68.602-92.676 119.88-119.06 2.5352 10.824 9.5352 20.07 19.266 25.441 9.7344 5.375 21.285 6.375 31.797 2.7539 10.512-3.6211 18.996-11.527 23.352-21.754 4.3555-10.23 4.1758-21.824-0.49609-31.91 18.117-3.6445 36.543-5.5117 55.02-5.5664v-17.5c-62.109-0.13672-122.7 19.164-173.29 55.195s-88.641 86.988-108.81 145.73l-0.32422 0.32422h-171.38c-3.5391 0-6.7266 2.1328-8.082 5.4023-1.3555 3.2695-0.60547 7.0312 1.8945 9.5352l28.816 28.812-20.062 20.062h-0.003906c-3.4141 3.418-3.4141 8.957 0 12.375l26.25 26.25c3.418 3.4141 8.957 3.4141 12.375 0l20.062-20.066 31.379 31.379-20.062 20.062h-0.003906c-1.1758 1.2344-1.9531 2.7969-2.2305 4.4805-1.3477 0.33984-2.6719 0.75391-3.9727 1.2422-0.875 0.35156-1.5938 0.875-2.4062 1.2617-1.2852 0.60156-2.5312 1.2773-3.7344 2.0312-0.79688 0.52344-1.4961 1.1797-2.2578 1.75-1.0859 0.80078-2.125 1.6602-3.1172 2.5703-0.70703 0.69141-1.3047 1.4883-1.9609 2.2383l0.003907 0.003906c-0.88672 0.96094-1.7188 1.9727-2.4961 3.0273-0.59375 0.875-1.0586 1.75-1.582 2.625-0.67188 1.0859-1.2812 2.2109-1.8281 3.3672-0.4375 0.98047-0.74219 2.0117-1.0938 3.0469v-0.003906c-0.44141 1.1914-0.81641 2.4023-1.1289 3.6328-0.25391 1.0938-0.36719 2.2148-0.51562 3.3438-0.12109 0.94531-0.375 1.8555-0.42969 2.8164l-93.75 93.816 12.371 12.371 96.25-96.25 0.003906 0.003906c1.6406-1.6406 2.5625-3.8672 2.5625-6.1875v-1.6367c0.003906-5.0742 2.0234-9.9414 5.6133-13.531 3.5898-3.5898 8.457-5.6094 13.531-5.6133v-0.21875l19.172 19.172v0.17578c0 5.082-2.0195 9.957-5.6172 13.547-3.5938 3.5938-8.4727 5.6094-13.555 5.6055h-1.6445c-2.3203 0-4.5469 0.92188-6.1875 2.5625l-96.25 96.25 12.371 12.371 93.75-93.746c7.582-0.44141 14.84-3.2305 20.766-7.9844 5.9258-4.75 10.223-11.23 12.301-18.535 1.6836-0.27734 3.2461-1.0547 4.4805-2.2305l20.02-20.066 11.312 11.312c0.0625 0.0625 0.14062 0.078125 0.19141 0.13281 0.050782 0.050782 0.078125 0.13281 0.14062 0.18359l20.781 18.699-21.113 21.113c-3.4141 3.418-3.4141 8.957 0 12.375l26.25 26.25c3.418 3.4141 8.957 3.4141 12.375 0l4.8984-4.8984v-0.003906c18.289 31.867 42.32 60.074 70.875 83.195l11.051-13.605c-28.117-22.781-51.559-50.789-69.035-82.477zm177.27-395.27c0.042969 7.6484-3.9219 14.758-10.449 18.742-6.5234 3.9883-14.66 4.2656-21.445 0.73828-6.7812-3.5312-11.223-10.352-11.707-17.984 12.902-5.5742 26.203-10.168 39.797-13.746 2.4727 3.6055 3.8008 7.875 3.8047 12.25zm-231.12 179.38-66.379 66.379-66.379-66.379zm-118.88 66.379-13.879-13.879 13.879-13.879 13.879 13.879zm78.75 78.75-22.629-22.629 46.312-46.312h0.003906c4.0703-3.8984 9.8906-5.3711 15.32-3.8711 5.4336 1.4961 9.6797 5.7422 11.176 11.176 1.5 5.4297 0.027344 11.25-3.8711 15.32zm58.688-33.941c8.4609-8.4648 11.766-20.797 8.668-32.355-3.0977-11.562-12.125-20.59-23.688-23.688-11.559-3.0977-23.891 0.20703-32.355 8.668l-20.062 20.066-5.1289-5.1289 85.145-85.145 1.0078 0.32422c0.22656-0.71875 0.52344-1.3828 0.76172-2.0898l80.027-80.027 58.828-11.77v-0.003907c2.9453-0.58594 5.9883 0.33594 8.1094 2.4609 2.125 2.1211 3.0469 5.1641 2.4609 8.1094l-11.77 58.828-166.94 166.94-5.1289-5.1289zm63.812-28.816v125.48l-66.047-59.438zm-66.379 118.88 15.574-15.574 14.613 13.125-16.309 16.328z" fill="white"/>
  <path d="m525 420c-9.2812 0-18.184 3.6875-24.75 10.25-6.5625 6.5664-10.25 15.469-10.25 24.75s3.6875 18.184 10.25 24.75c6.5664 6.5625 15.469 10.25 24.75 10.25s18.184-3.6875 24.75-10.25c6.5625-6.5664 10.25-15.469 10.25-24.75s-3.6875-18.184-10.25-24.75c-6.5664-6.5625-15.469-10.25-24.75-10.25zm0 52.5c-4.6406 0-9.0938-1.8438-12.375-5.125s-5.125-7.7344-5.125-12.375 1.8438-9.0938 5.125-12.375 7.7344-5.125 12.375-5.125 9.0938 1.8438 12.375 5.125 5.125 7.7344 5.125 12.375-1.8438 9.0938-5.125 12.375-7.7344 5.125-12.375 5.125z" fill="white"/>
  <path d="m507.5 236.25h-17.5c0.023438 20.879 8.3281 40.895 23.09 55.66 14.766 14.762 34.781 23.066 55.66 23.09v-17.5c-16.238-0.019531-31.805-6.4805-43.289-17.961-11.48-11.484-17.941-27.051-17.961-43.289z" fill="white"/>
  <path d="m568.75 192.5c-11.602 0-22.73 4.6094-30.938 12.812-8.2031 8.207-12.812 19.336-12.812 30.938s4.6094 22.73 12.812 30.938c8.207 8.2031 19.336 12.812 30.938 12.812s22.73-4.6094 30.938-12.812c8.2031-8.207 12.812-19.336 12.812-30.938-0.015625-11.598-4.6289-22.719-12.828-30.922-8.2031-8.1992-19.324-12.812-30.922-12.828zm0 70c-6.9609 0-13.641-2.7656-18.562-7.6875s-7.6875-11.602-7.6875-18.562 2.7656-13.641 7.6875-18.562 11.602-7.6875 18.562-7.6875 13.641 2.7656 18.562 7.6875 7.6875 11.602 7.6875 18.562-2.7656 13.641-7.6875 18.562-11.602 7.6875-18.562 7.6875z" fill="white"/>
  <path d="m116.31 352.57 43.75-43.75 12.375 12.375-43.75 43.75z" fill="white"/>
  <path d="m90.062 378.81 17.496-17.496 12.375 12.375-17.496 17.496z" fill="white"/>
  <path d="m265.06 501.32 43.75-43.75 12.375 12.375-43.75 43.75z" fill="white"/>
  <path d="m238.81 527.56 17.496-17.496 12.375 12.375-17.496 17.496z" fill="white"/>
  <path d="m90.062 527.56 26.254-26.254 12.375 12.375-26.254 26.254z" fill="white"/>
  <use x="70" y="691.25" xlink:href="#k" fill="white"/>
  <use x="102.109375" y="691.25" xlink:href="#c" fill="white"/>
  <use x="123.683594" y="691.25" xlink:href="#b" fill="white"/>
  <use x="153.355469" y="691.25" xlink:href="#j" fill="white"/>
  <use x="182.878906" y="691.25" xlink:href="#i" fill="white"/>
  <use x="203.792969" y="691.25" xlink:href="#b" fill="white"/>
  <use x="233.464844" y="691.25" xlink:href="#h" fill="white"/>
  <use x="280.011719" y="691.25" xlink:href="#a" fill="white"/>
  <use x="311.328125" y="691.25" xlink:href="#g" fill="white"/>
  <use x="355.078125" y="691.25" xlink:href="#f" fill="white"/>
  <use x="384.921875" y="691.25" xlink:href="#e" fill="white"/>
  <use x="416.070312" y="691.25" xlink:href="#c" fill="white"/>
  <use x="437.644531" y="691.25" xlink:href="#d" fill="white"/>
  <use x="466.742188" y="691.25" xlink:href="#d" fill="white"/>
  <use x="495.835938" y="691.25" xlink:href="#e" fill="white"/>
  <use x="526.984375" y="691.25" xlink:href="#a" fill="white"/>
 </g>
</svg>
