<?xml version="1.0" encoding="UTF-8"?>
<svg width="700pt" height="700pt" version="1.1" viewBox="0 0 700 700" xmlns="http://www.w3.org/2000/svg" xmlns:xlink="http://www.w3.org/1999/xlink">
 <g>
  <path d="m272.16 150.08c-1.6797 0-2.8008-0.55859-3.9219-1.6797-8.9609-7.8398-17.359-16.238-24.078-25.762-6.7188-9.5195-1.6797-17.359 3.9219-26.879 1.1211-1.6797 2.2383-3.3594 3.3594-5.6016 11.199-18.48 5.6016-42.559-12.879-53.762-16.238-10.078-37.52-6.1602-49.281 8.3984-1.6797 2.2383-3.3594 4.4805-4.4805 7.2812 17.359 1.6797 30.801 8.3984 39.199 19.039 14.559 18.48 9.5195 42.559 8.9609 43.121-0.55859 2.2383-2.2383 4.4805-5.0391 5.0391-16.801 3.3594-34.16-2.8008-45.922-15.68-12.32-12.879-16.801-31.359-12.32-47.602 1.6797-6.7188 5.0391-13.441 10.078-19.039 15.68-19.602 43.68-24.641 65.52-11.762 24.078 14.559 31.922 45.922 16.801 70.559-1.1211 2.2383-2.2383 3.9219-3.3594 5.6016-6.1602 10.078-6.1602 10.641-4.4805 12.879 6.1602 8.3984 13.441 16.801 21.84 23.52 2.8008 2.2383 2.8008 6.1602 0.55859 8.9609-1.1172 2.25-2.7969 3.3672-4.4766 3.3672zm-91.84-85.117c-1.1211 11.199 2.2383 22.398 10.641 31.359 7.8398 8.3984 18.48 12.879 29.68 12.32 0.55859-6.7188 0.55859-19.039-7.2812-28.559-6.7188-8.9609-17.918-14.004-33.039-15.121z" fill="#FFF3E3"/>
  <path d="m277.76 217.28c-3.9219 0-8.3984-1.1211-11.762-3.3594-4.4805-2.8008-7.2812-7.2812-7.8398-12.32-0.55859-5.0391 0.55859-10.641 3.9219-14.559l25.199-32.48c2.2383-2.8008 6.1602-3.3594 8.9609-1.1211 2.8008 2.2383 3.3594 6.1602 1.1211 8.9609l-25.762 31.918c-1.1211 1.1211-1.6797 2.8008-1.1211 4.4805 0.55859 1.6797 1.1211 3.3594 2.8008 3.9219 3.9219 2.8008 9.5195 1.6797 12.32-2.2383l44.238-59.359c3.9219-5.0391 2.8008-11.199 2.2383-14-1.6797-6.7188-6.7188-12.32-12.879-14.559l-31.922-12.879c-3.3594-1.1211-4.4805-5.0391-3.3594-8.3984 1.1211-3.3594 5.0391-4.4805 8.3984-3.3594l31.922 12.879c9.5195 3.9219 17.359 12.32 20.16 22.961 2.8008 8.9609 1.1211 17.922-3.9219 25.199l-44.238 59.359c-5.0391 5.5938-11.758 8.9531-18.477 8.9531z" fill="#FFF3E3"/>
  <path d="m449.12 235.76c-10.078 0-20.16-2.8008-29.121-7.8398-8.3984-5.0391-15.68-9.5195-22.398-13.441-34.16-20.719-41.441-24.641-61.602-32.48-3.3594-1.1211-5.0391-5.0391-3.9219-7.8398 1.1211-3.3594 5.0391-5.0391 7.8398-3.9219 20.719 7.8398 29.121 12.879 63.281 33.039 6.1602 3.9219 14 8.3984 22.398 13.441 15.121 8.9609 34.719 7.8398 48.719-2.2383l62.719-45.922-20.16-31.922-44.801 33.602c-9.5195 7.2812-22.398 5.6016-30.801-2.8008l-31.922-34.16c-16.238-17.359-29.68-25.199-48.16-35.84-2.2383-1.6797-5.0391-2.8008-7.2812-4.4805-2.8008-1.6797-3.9219-5.6016-2.2383-8.3984 1.6797-2.8008 5.6016-3.9219 8.3984-2.2383 2.8008 1.6797 5.0391 2.8008 7.2812 4.4805 19.039 11.199 33.602 19.602 50.961 38.078l31.922 34.16c3.9219 3.9219 9.5195 4.4805 14 1.1211l50.398-37.52c1.1211-1.1211 3.3594-1.6797 5.0391-1.1211 1.6797 0.55859 3.3594 1.1211 3.9219 2.8008l27.441 42.559c1.6797 2.8008 1.1211 6.7188-1.6797 8.3984l-67.199 49.281c-9.5156 7.8398-21.277 11.203-33.035 11.203z" fill="#FFF3E3"/>
  <path d="m328.72 79.52c-1.1211 0-1.6797 0-2.8008-0.55859l-1.1172-0.5625c-13.441-6.1602-29.121-13.441-61.039-6.7188-3.3594 0.55859-6.7188-1.6797-7.2812-5.0391-0.55859-3.3594 1.6797-6.7188 5.0391-7.2812 36.398-7.8398 54.879 1.1211 68.879 7.8398l1.1211 0.55859c3.3594 1.6797 4.4805 5.0391 2.8008 8.3984-0.55859 2.2422-2.8008 3.3633-5.6016 3.3633z" fill="#FFF3E3"/>
  <path d="m546 176.4c-3.3594 0-6.1602-2.2383-6.1602-5.6016-0.55859-3.3594 2.2383-6.7188 5.6016-6.7188l24.078-2.8008c3.9219-0.55859 5.6016-3.3594 6.1602-4.4805 0.55859-1.1211 1.6797-4.4805-0.55859-7.2812l-16.238-22.961c-2.8008-3.9219-7.2812-6.7188-12.32-7.2812-5.0391-0.55859-10.078 1.1211-13.441 4.4805l-9.5195 8.3984c-2.8008 2.2383-6.7188 2.2383-8.9609-0.55859-2.2383-2.8008-2.2383-6.7188 0.55859-8.9609l9.5195-8.3984c6.1602-5.6016 15.121-8.3984 23.52-7.8398 8.3984 1.1211 16.238 5.6016 21.281 12.32l16.238 22.961c3.9219 5.6016 5.0391 13.441 1.6797 19.602-2.8008 6.7188-8.9609 10.641-16.238 11.762l-24.078 2.8008c-0.5625 0.55859-0.5625 0.55859-1.1211 0.55859z" fill="#FFF3E3"/>
  <path d="m357.28 94.641h-0.55859c-3.3594-0.55859-6.1602-3.3594-5.6016-7.2812l2.2383-19.039c1.6797-13.441-5.0391-26.879-16.801-34.16l-21.84-12.879c-3.3594-2.2383-7.8398-2.8008-11.762-1.6797-3.9219 1.1211-7.2812 3.3594-9.5195 7.2812l-10.637 17.918c-1.6797 2.8008-5.6016 3.9219-8.3984 2.2383-2.8008-1.6797-3.9219-5.6016-2.2383-8.3984l10.641-17.922c7.8398-13.441 25.199-17.922 38.078-10.078l21.84 12.879c16.238 9.5195 25.199 28 22.961 46.48l-2.2383 19.039c-0.56641 2.8008-2.8047 5.6016-6.1641 5.6016z" fill="#FFF3E3"/>
  <path d="m352.8 188.72c-1.1211 0-2.2383-0.55859-3.3594-1.1211-2.8008-1.6797-3.9219-5.6016-2.2383-8.3984l31.922-53.762c1.6797-2.8008 5.6016-3.9219 8.3984-2.2383 2.8008 1.6797 3.9219 5.6016 2.2383 8.3984l-31.922 53.762c-1.1211 2.2422-2.8008 3.3594-5.0391 3.3594z" fill="#FFF3E3"/>
  <path d="m558.88 385.28c-36.961 0-66.641-29.68-66.641-66.641s29.684-66.641 66.641-66.641c36.961 0 66.641 29.68 66.641 66.641s-30.238 66.641-66.641 66.641zm0-120.96c-29.68 0-53.762 24.078-53.762 53.762 0 29.68 24.078 53.762 53.762 53.762 29.68 0 53.762-24.078 53.762-53.762 0-29.684-24.082-53.762-53.762-53.762z" fill="#FFF3E3"/>
  <path d="m239.12 560c-90.723 0-164.64-73.922-164.64-164.08 0-90.719 73.922-164.08 164.08-164.08 90.16 0 164.08 73.922 164.08 164.08 0.5625 90.156-73.355 164.08-163.52 164.08zm0-315.84c-83.441 0-151.76 68.32-151.76 151.76s68.32 151.76 151.76 151.76 151.76-68.32 151.76-151.76c-0.003906-84-68.324-151.76-151.76-151.76z" fill="#FFF3E3"/>
  <path d="m431.76 62.16c-2.2383 0-3.9219 0-6.1602-0.55859-7.8398-1.1211-15.68-3.9219-22.398-6.7188-4.4805-1.6797-8.3984-3.3594-12.879-4.4805-8.9609-2.2383-21.281-2.2383-26.879 5.0391-2.2383 2.8008-6.1602 3.3594-8.9609 1.1211s-3.3594-6.1602-1.1211-8.9609c9.5195-12.32 26.879-12.879 40.32-8.9609 5.0391 1.1211 9.5195 3.3594 14 5.0391 6.7188 2.8008 12.879 5.0391 19.602 5.6016 11.762 1.6797 24.078-2.8008 31.922-10.641 8.3984-7.8398 12.879-20.16 11.762-31.922-0.55859-3.3594 2.2383-6.7188 5.6016-6.7188 3.3594 0 6.7188 2.2383 6.7188 5.6016 1.1211 15.68-4.4805 30.801-15.68 42-8.9688 9.5195-22.41 14.559-35.848 14.559z" fill="#FFF3E3"/>
  <path d="m472.64 487.76c0 5.5664-4.5117 10.078-10.082 10.078-5.5664 0-10.078-4.5117-10.078-10.078 0-5.5703 4.5117-10.082 10.078-10.082 5.5703 0 10.082 4.5117 10.082 10.082" fill="#FFF3E3"/>
  <path d="m592.48 509.04c0 5.5664-4.5117 10.082-10.082 10.082-5.5664 0-10.078-4.5156-10.078-10.082 0-5.5664 4.5117-10.078 10.078-10.078 5.5703 0 10.082 4.5117 10.082 10.078" fill="#FFF3E3"/>
  <path d="m452.48 311.36c0 5.5664-4.5117 10.082-10.082 10.082-5.5664 0-10.078-4.5156-10.078-10.082s4.5117-10.078 10.078-10.078c5.5703 0 10.082 4.5117 10.082 10.078" fill="#FFF3E3"/>
  <path d="m588.56 56c0 5.5664-4.5117 10.078-10.078 10.078-5.5664 0-10.082-4.5117-10.082-10.078s4.5156-10.078 10.082-10.078c5.5664 0 10.078 4.5117 10.078 10.078" fill="#FFF3E3"/>
  <path d="m161.84 182.56c0 5.5703-4.5117 10.082-10.078 10.082-5.5703 0-10.082-4.5117-10.082-10.082 0-5.5664 4.5117-10.078 10.082-10.078 5.5664 0 10.078 4.5117 10.078 10.078" fill="#FFF3E3"/>
  <path d="m303.52 546c-2.8008 0-5.0391-1.6797-6.1602-4.4805-5.0391-15.68-14-29.121-25.199-40.32-6.1602-6.1602-14-11.199-21.281-16.801-14.559-10.641-29.121-21.281-38.078-37.52-5.0391-10.078-7.2812-21.281-8.9609-31.359-0.55859-2.8008-1.1211-6.1602-1.6797-8.9609-3.3594-15.68-8.3984-25.762-16.238-31.359-6.1602-4.4805-14.559-7.2812-25.762-7.2812-6.1602 0-12.879 0.55859-19.602 1.6797-3.9219 0.55859-7.2812 1.1211-11.199 1.1211-15.68 1.1211-31.359 0.55859-47.039-2.8008-3.3594-0.55859-5.6016-3.9219-5.0391-7.2812 0.55859-3.3594 3.9219-5.6016 7.2812-5.0391 14.559 2.8008 29.121 3.9219 43.68 2.8008 3.3594-0.55859 7.2812-0.55859 10.641-1.1211 6.7188-0.55859 14-1.6797 20.719-1.6797 13.441 0 24.641 3.3594 33.039 9.5195 13.441 10.078 18.48 26.879 20.719 38.641 0.55859 3.3594 1.1211 6.1602 1.6797 9.5195 1.6797 10.078 3.9219 19.602 7.8398 28 7.2812 14 20.16 23.52 34.16 33.602 7.2812 5.6016 15.121 11.199 22.398 17.359 12.879 12.32 22.961 28 28.559 45.359 1.1211 3.3594-0.55859 6.7188-3.9219 7.8398 1.125 0.5625 0.56641 0.5625-0.55469 0.5625z" fill="#FFF3E3"/>
  <path d="m395.36 424.48c-1.1211 0-2.2383 0-2.8008-0.55859-9.5195-5.0391-20.16-8.9609-30.801-12.32-2.8008-0.55859-5.0391-1.6797-7.8398-2.2383-14.559-5.0391-33.602-12.32-48.719-25.199-16.238-14-25.762-31.922-25.762-49.84-0.55859-22.961 13.441-42.559 26.879-60.48 3.9219-5.0391 7.2812-10.078 10.641-15.121 1.6797-2.8008 5.6016-3.3594 8.9609-1.6797 2.8008 1.6797 3.3594 5.6016 1.6797 8.9609-3.3594 5.0391-7.2812 10.078-11.199 15.68-12.879 17.359-24.641 34.16-24.641 53.199 0 14.559 7.8398 29.121 21.281 40.879 13.441 11.199 30.238 17.922 44.801 22.961 2.2383 0.55859 5.0391 1.6797 7.2812 2.2383 11.199 3.3594 22.398 7.2812 33.039 13.441 2.8008 1.6797 3.9219 5.6016 2.2383 8.3984-0.55859 0.55859-2.7969 1.6797-5.0391 1.6797z" fill="#FFF3E3"/>
 </g>
</svg>
