<?xml version="1.0" encoding="UTF-8"?>
<svg width="700pt" height="700pt" version="1.1" viewBox="0 0 700 700" xmlns="http://www.w3.org/2000/svg" xmlns:xlink="http://www.w3.org/1999/xlink">
 <g>
  <path d="m227.41 206.75 97.047-45.246-8.9609-19.207-27.383 12.77c-16.016 7.4492-27.383-16.91-11.312-24.359l79.07-36.902c16.07-7.4492 27.383 16.91 11.367 24.359l-27.383 12.77 8.9609 19.207 120.34-56.113-7.168-15.344c-3.0781-6.7188-0.16797-14.727 6.5508-17.863l61.879-28.895c6.7188-3.1367 14.727-0.16797 17.863 6.5508l74.871 160.5c3.1367 6.7188 0.16797 14.727-6.5508 17.863l-61.879 28.84c-6.7188 3.1367-14.727 0.22266-17.863-6.4961l-7.168-15.344-120.4 56.168 36.062 86.855h27.551c17.754 0 17.754 26.879 0 26.879h-16.406l48.551 117.1c6.7188 16.238-18.031 26.543-24.809 10.305l-52.809-127.4h-70.895l-52.809 127.4c-6.7773 16.238-31.527 5.9375-24.809-10.305l48.551-117.1h-16.465c-17.695 0-17.695-26.879 0-26.879h27.609l27.719-66.863-78.398 36.566c-6.7188 3.1367-14.727 0.22266-17.863-6.4961l-0.95312-2.1289-34.832 16.238c-6.7188 3.1367-14.727 0.22266-17.863-6.5508l-2.3516-4.9844-99.566 46.426c-6.7773 3.1367-14.727 0.22266-17.863-6.4961l-19.824-42.391c-3.1367-6.7773-0.16797-14.727 6.5508-17.863l99.566-46.48-2.3516-4.9844c-3.1367-6.7188-0.22266-14.727 6.4961-17.863l34.832-16.238-1.0078-2.1836c-3.1367-6.7188-0.22266-14.672 6.4961-17.809zm188.89 160.11-24.305-58.574-24.305 58.574zm102.09-167.38-37.855-81.09-229.54 107.02c12.602 27.047 25.199 54.098 37.801 81.145 76.551-35.672 153.05-71.398 229.6-107.07zm-237.44 35.504c-7.5039-16.016 16.855-27.383 24.359-11.312l6.3828 13.719c7.5039 16.07-16.855 27.383-24.359 11.367l-6.3828-13.777zm90.664-25.535-6.4414-13.719c-7.4492-16.07 16.91-27.383 24.359-11.367l6.4414 13.777c7.4492 16.016-16.91 27.383-24.359 11.312zm-48.551 5.8789c-7.4492-16.016 16.91-27.383 24.359-11.312l6.4414 13.777c7.4492 16.016-16.91 27.383-24.359 11.312zm-65.297 88.258-24.473-52.473-22.625 10.527 24.414 52.473 22.68-10.527zm-63.449-13.383-87.414 40.77 8.3984 18.09 87.414-40.77zm361.26-74.535 37.52-17.527-63.449-136.14-37.574 17.527z" fill="#FFF3E3"/>
  <use x="70" y="644" xlink:href="#u" fill="#FFF3E3"/>
  <use x="90.550781" y="644" xlink:href="#b" fill="#FFF3E3"/>
  <use x="104.359375" y="644" xlink:href="#a" fill="#FFF3E3"/>
  <use x="123.347656" y="644" xlink:href="#d" fill="#FFF3E3"/>
  <use x="142.242188" y="644" xlink:href="#c" fill="#FFF3E3"/>
  <use x="155.628906" y="644" xlink:href="#a" fill="#FFF3E3"/>
  <use x="174.617188" y="644" xlink:href="#l" fill="#FFF3E3"/>
  <use x="204.410156" y="644" xlink:href="#k" fill="#FFF3E3"/>
  <use x="224.453125" y="644" xlink:href="#j" fill="#FFF3E3"/>
  <use x="252.453125" y="644" xlink:href="#f" fill="#FFF3E3"/>
  <use x="269.046875" y="644" xlink:href="#d" fill="#FFF3E3"/>
  <use x="287.945312" y="644" xlink:href="#i" fill="#FFF3E3"/>
  <use x="306.5625" y="644" xlink:href="#h" fill="#FFF3E3"/>
  <use x="323.230469" y="644" xlink:href="#t" fill="#FFF3E3"/>
  <use x="332.828125" y="644" xlink:href="#d" fill="#FFF3E3"/>
  <use x="351.722656" y="644" xlink:href="#g" fill="#FFF3E3"/>
  <use x="371.65625" y="644" xlink:href="#i" fill="#FFF3E3"/>
  <use x="390.277344" y="644" xlink:href="#a" fill="#FFF3E3"/>
  <use x="409.265625" y="644" xlink:href="#b" fill="#FFF3E3"/>
  <use x="423.078125" y="644" xlink:href="#h" fill="#FFF3E3"/>
  <use x="70" y="672" xlink:href="#s" fill="#FFF3E3"/>
  <use x="82.183594" y="672" xlink:href="#b" fill="#FFF3E3"/>
  <use x="95.992188" y="672" xlink:href="#e" fill="#FFF3E3"/>
  <use x="115.226562" y="672" xlink:href="#r" fill="#FFF3E3"/>
  <use x="154.152344" y="672" xlink:href="#c" fill="#FFF3E3"/>
  <use x="167.535156" y="672" xlink:href="#q" fill="#FFF3E3"/>
  <use x="187.46875" y="672" xlink:href="#a" fill="#FFF3E3"/>
  <use x="216.207031" y="672" xlink:href="#p" fill="#FFF3E3"/>
  <use x="239.640625" y="672" xlink:href="#e" fill="#FFF3E3"/>
  <use x="258.878906" y="672" xlink:href="#o" fill="#FFF3E3"/>
  <use x="278.8125" y="672" xlink:href="#g" fill="#FFF3E3"/>
  <use x="308.492188" y="672" xlink:href="#n" fill="#FFF3E3"/>
  <use x="329.015625" y="672" xlink:href="#b" fill="#FFF3E3"/>
  <use x="342.820312" y="672" xlink:href="#e" fill="#FFF3E3"/>
  <use x="362.058594" y="672" xlink:href="#m" fill="#FFF3E3"/>
  <use x="371.65625" y="672" xlink:href="#a" fill="#FFF3E3"/>
  <use x="390.648438" y="672" xlink:href="#f" fill="#FFF3E3"/>
  <use x="407.242188" y="672" xlink:href="#c" fill="#FFF3E3"/>
 </g>
</svg>
