<?xml version="1.0" encoding="UTF-8"?>
<svg width="700pt" height="700pt" version="1.1" viewBox="0 0 700 700" xmlns="http://www.w3.org/2000/svg" xmlns:xlink="http://www.w3.org/1999/xlink">
 <g>
  <path d="m416.08 353.36c-3.3594 0-6.1602-2.8008-6.1602-6.1602l0.003906-57.68c0-3.3594 2.8008-6.1602 6.1602-6.1602s6.1602 2.8008 6.1602 6.1602l-0.003907 57.68c0 3.3594-2.7969 6.1602-6.1602 6.1602z" fill="#FFF3E3"/>
  <path d="m208.32 353.36c-3.3594 0-6.1602-2.8008-6.1602-6.1602v-57.68c0-3.3594 2.8008-6.1602 6.1602-6.1602 3.3594 0 6.1602 2.8008 6.1602 6.1602v57.68c0 3.3594-2.8008 6.1602-6.1602 6.1602z" fill="#FFF3E3"/>
  <path d="m474.88 447.44h-253.12c-45.922 0-80.641-16.238-105.84-49.281l-2.8008-3.3594 2.8008-3.3594c25.199-33.039 59.922-49.281 105.84-49.281h253.12c9.5195 0 17.359 7.8398 17.359 17.359v71.121c-0.003907 8.9609-7.8438 16.801-17.363 16.801zm-346.64-53.203c22.398 27.441 53.199 40.879 93.52 40.879h253.12c2.8008 0 5.6016-2.2383 5.6016-5.6016v-71.117c0-2.8008-2.2383-5.6016-5.6016-5.6016l-253.12 0.003906c-40.32 0.55859-70.562 14-93.523 41.438z" fill="#FFF3E3"/>
  <path d="m515.76 432.32h-2.2383l-28.562-6.7188c-3.3594-0.55859-5.0391-3.9219-4.4805-7.2812 0.55859-3.3594 3.9219-5.0391 7.2812-4.4805l27.441 6.1602v-51.52l-27.441 6.1602c-3.3594 0.55859-6.1602-1.1211-7.2812-4.4805-0.55859-3.3594 1.1211-6.1602 4.4805-7.2812l28.559-6.7188c3.3594-0.55859 6.7188 0 9.5195 2.2383 2.8008 2.2383 3.9219 5.0391 3.9219 8.3984v53.199c0 3.3594-1.6797 6.7188-3.9219 8.3984-2.2383 2.8047-4.4805 3.9258-7.2773 3.9258z" fill="#FFF3E3"/>
  <path d="m579.04 428.96h-21.281c-3.3594 0-6.1602-2.8008-6.1602-6.1602s2.8008-6.1602 6.1602-6.1602h21.281c3.3594 0 6.1602 2.8008 6.1602 6.1602s-2.8008 6.1602-6.1602 6.1602z" fill="#FFF3E3"/>
  <path d="m587.44 400.4h-37.52c-3.3594 0-6.1602-2.8008-6.1602-6.1602s2.8008-6.1602 6.1602-6.1602h37.52c3.3594 0 6.1602 2.8008 6.1602 6.1602 0 3.3633-3.3633 6.1602-6.1602 6.1602z" fill="#FFF3E3"/>
  <path d="m579.04 371.84h-21.281c-3.3594 0-6.1602-2.8008-6.1602-6.1602 0-3.3594 2.8008-6.1602 6.1602-6.1602h21.281c3.3594 0 6.1602 2.8008 6.1602 6.1602 0 3.3594-2.8008 6.1602-6.1602 6.1602z" fill="#FFF3E3"/>
  <path d="m520.24 493.92h-69.438l-48.719-48.719c-2.2383-2.2383-2.2383-6.1602 0-8.3984 2.2383-2.2383 6.1602-2.2383 8.3984 0l45.359 45.359h35.84l-16.801-16.801c-2.2383-2.2383-2.2383-6.1602 0-8.3984 2.2383-2.2383 6.1602-2.2383 8.3984 0z" fill="#FFF3E3"/>
  <path d="m187.6 443.52c-1.1211 0-1.6797 0-2.8008-0.55859-2.8008-1.1211-4.4805-5.0391-2.8008-7.8398 6.1602-12.879 8.9609-26.32 8.9609-40.879 0-14.559-2.8008-28-8.9609-40.879-1.1211-2.8008 0-6.7188 2.8008-7.8398 2.8008-1.1211 6.7188 0 7.8398 2.8008 6.7188 14.559 10.078 29.68 10.078 45.922 0 16.238-3.3594 31.359-10.078 45.922-0.5625 2.2305-2.8008 3.3516-5.0391 3.3516z" fill="#FFF3E3"/>
  <path d="m542.64 295.68h-429.52c-23.52 0-43.121-19.602-43.121-43.68 0-17.922 10.641-33.602 27.441-40.32l42-16.801 19.602-21.84c12.879-14.559 31.922-22.961 51.52-22.961h258.16l74.48-82.32c1.1211-1.1211 2.8008-1.6797 4.4805-1.6797h76.719c2.2383 0 3.9219 1.1211 5.0391 2.8008 1.1211 1.6797 1.1211 3.9219 0 5.6016l-48.719 89.039-0.003906 94.082c0 20.719-17.359 38.078-38.078 38.078zm-332.08-133.84c-16.238 0-31.922 6.7188-42.559 19.039l-20.719 22.961c-0.55859 0.55859-1.6797 1.1211-2.2383 1.6797l-43.68 16.801c-12.32 5.0391-20.16 16.238-20.16 29.121 0 17.359 14 31.359 31.359 31.359h429.52c14 0 25.762-11.762 25.762-25.762l-0.003906-94.641c0-1.1211 0-2.2383 0.55859-2.8008l44.801-81.762-63.277 0.003906-74.48 82.32c-1.1211 1.1211-2.8008 1.6797-4.4805 1.6797z" fill="#FFF3E3"/>
  <path d="m207.76 206.08h-64.402c-3.3594 0-6.1602-2.8008-6.1602-6.1602s2.8008-6.1602 6.1602-6.1602h64.398c21.281 0 38.078-17.359 38.078-38.078 0-3.3594 2.8008-6.1602 6.1602-6.1602s6.1602 2.8008 6.1602 6.1602c0.003906 28-22.395 50.398-50.395 50.398z" fill="#FFF3E3"/>
  <path d="m427.28 206.08h-156.8c-3.3594 0-6.1602-2.8008-6.1602-6.1602s2.8008-6.1602 6.1602-6.1602h156.24c21.281 0 38.078-17.359 38.078-38.078 0-3.3594 2.8008-6.1602 6.1602-6.1602s6.1602 2.8008 6.1602 6.1602c0.003906 28-22.398 50.398-49.836 50.398z" fill="#FFF3E3"/>
  <path d="m574.56 168.56h-32.48c-3.3594 0-6.1602-2.8008-6.1602-6.1602 0-3.3594 2.8008-6.1602 6.1602-6.1602h32.48c3.3594 0 6.1602 2.8008 6.1602 6.1602 0 3.3633-2.7969 6.1602-6.1602 6.1602z" fill="#FFF3E3"/>
  <use x="70" y="644" xlink:href="#u" fill="#FFF3E3"/>
  <use x="90.550781" y="644" xlink:href="#c" fill="#FFF3E3"/>
  <use x="104.359375" y="644" xlink:href="#a" fill="#FFF3E3"/>
  <use x="123.347656" y="644" xlink:href="#i" fill="#FFF3E3"/>
  <use x="142.242188" y="644" xlink:href="#b" fill="#FFF3E3"/>
  <use x="155.628906" y="644" xlink:href="#a" fill="#FFF3E3"/>
  <use x="174.617188" y="644" xlink:href="#h" fill="#FFF3E3"/>
  <use x="204.410156" y="644" xlink:href="#g" fill="#FFF3E3"/>
  <use x="224.453125" y="644" xlink:href="#f" fill="#FFF3E3"/>
  <use x="252.453125" y="644" xlink:href="#e" fill="#FFF3E3"/>
  <use x="275.882812" y="644" xlink:href="#t" fill="#FFF3E3"/>
  <use x="286.523438" y="644" xlink:href="#s" fill="#FFF3E3"/>
  <use x="306.6875" y="644" xlink:href="#b" fill="#FFF3E3"/>
  <use x="320.070312" y="644" xlink:href="#f" fill="#FFF3E3"/>
  <use x="338.324219" y="644" xlink:href="#r" fill="#FFF3E3"/>
  <use x="347.921875" y="644" xlink:href="#a" fill="#FFF3E3"/>
  <use x="70" y="672" xlink:href="#q" fill="#FFF3E3"/>
  <use x="82.183594" y="672" xlink:href="#c" fill="#FFF3E3"/>
  <use x="95.992188" y="672" xlink:href="#d" fill="#FFF3E3"/>
  <use x="115.226562" y="672" xlink:href="#p" fill="#FFF3E3"/>
  <use x="154.152344" y="672" xlink:href="#b" fill="#FFF3E3"/>
  <use x="167.535156" y="672" xlink:href="#o" fill="#FFF3E3"/>
  <use x="187.46875" y="672" xlink:href="#a" fill="#FFF3E3"/>
  <use x="216.207031" y="672" xlink:href="#e" fill="#FFF3E3"/>
  <use x="239.640625" y="672" xlink:href="#d" fill="#FFF3E3"/>
  <use x="258.878906" y="672" xlink:href="#n" fill="#FFF3E3"/>
  <use x="278.8125" y="672" xlink:href="#m" fill="#FFF3E3"/>
  <use x="308.492188" y="672" xlink:href="#l" fill="#FFF3E3"/>
  <use x="329.015625" y="672" xlink:href="#c" fill="#FFF3E3"/>
  <use x="342.820312" y="672" xlink:href="#d" fill="#FFF3E3"/>
  <use x="362.058594" y="672" xlink:href="#k" fill="#FFF3E3"/>
  <use x="371.65625" y="672" xlink:href="#a" fill="#FFF3E3"/>
  <use x="390.648438" y="672" xlink:href="#j" fill="#FFF3E3"/>
  <use x="407.242188" y="672" xlink:href="#b" fill="#FFF3E3"/>
 </g>
</svg>
