<?xml version="1.0" encoding="UTF-8"?>
<svg width="700pt" height="700pt" version="1.1" viewBox="0 0 700 700" xmlns="http://www.w3.org/2000/svg" xmlns:xlink="http://www.w3.org/1999/xlink">
 <g>
  <path d="m492.84 262.5-10.121-5.5352c-9.1562-5.0078-16.648-12.496-21.656-21.652l-5.5352-10.121c-1.9648-3.5938-7.8633-3.5938-9.8281 0l-5.5352 10.121c-5.0078 9.1562-12.496 16.648-21.656 21.652l-10.121 5.5352c-1.793 0.98047-2.9102 2.8672-2.9102 4.9141s1.1172 3.9297 2.9102 4.9141l10.121 5.5352c9.1602 5.0078 16.648 12.496 21.656 21.652l5.5352 10.121c0.98047 1.7969 2.8672 2.9102 4.9141 2.9102s3.9336-1.1172 4.9141-2.9102l5.5352-10.121c5.0078-9.1562 12.5-16.648 21.656-21.652l10.121-5.5352c1.7969-0.98438 2.9102-2.8672 2.9102-4.9141 0.003906-2.0469-1.1172-3.9297-2.9102-4.9141zm-15.496 5.5391c-11.039 6.0391-20.066 15.062-26.109 26.105l-0.62109 1.1367-0.62109-1.1367c-6.0391-11.043-15.066-20.066-26.109-26.105l-1.1406-0.625 1.1406-0.62109c11.043-6.0391 20.066-15.062 26.109-26.109l0.62109-1.1328 0.62109 1.1367c6.043 11.043 15.07 20.066 26.109 26.105l1.1367 0.62109z" fill="#FFF3E3"/>
  <path d="m480.25 465.89c10.176 5.5625 18.492 13.883 24.059 24.059l6.0938 11.141c0.98047 1.793 2.8633 2.9102 4.9141 2.9102 2.0469 0 3.9336-1.1172 4.9141-2.9102l6.0938-11.141c5.5664-10.176 13.887-18.492 24.059-24.059l11.141-6.0938c1.7969-0.98047 2.9102-2.8672 2.9102-4.9141 0-2.0469-1.1172-3.9336-2.9102-4.9141l-11.141-6.0938c-10.176-5.5625-18.492-13.883-24.059-24.059l-6.0938-11.141c-1.9648-3.5938-7.8633-3.5938-9.8281 0l-6.0938 11.141c-5.5625 10.176-13.883 18.496-24.059 24.059l-11.141 6.0938c-1.793 0.98438-2.9102 2.8672-2.9102 4.918 0 2.0469 1.1172 3.9336 2.9102 4.9141zm5.3789-12.184c12.055-6.5938 21.914-16.457 28.508-28.512l1.1797-2.1562 1.1797 2.1562c6.5977 12.059 16.457 21.914 28.512 28.512l2.1562 1.1797-2.1562 1.1797c-12.055 6.5938-21.914 16.453-28.512 28.508l-1.1797 2.1562-1.1797-2.1562c-6.5938-12.055-16.453-21.914-28.508-28.508l-2.1562-1.1797z" fill="#FFF3E3"/>
  <path d="m128.91 111.56 11.535 6.3086c10.57 5.7812 19.211 14.426 24.992 24.988l6.3086 11.535c0.98047 1.793 2.8672 2.9102 4.9141 2.9102s3.9336-1.1172 4.9141-2.9102l6.3086-11.535c5.7773-10.566 14.418-19.207 24.988-24.988l11.535-6.3086c1.7969-0.98047 2.9102-2.8672 2.9102-4.9141 0-2.0469-1.1172-3.9336-2.9102-4.9141l-11.535-6.3086c-10.57-5.7812-19.211-14.422-24.988-24.988l-6.3086-11.535c-1.9648-3.5859-7.8633-3.5859-9.8281 0l-6.3086 11.535c-5.7812 10.566-14.422 19.211-24.992 24.988l-11.535 6.3086c-1.793 0.98438-2.9102 2.8672-2.9102 4.9141 0 2.0469 1.1172 3.9336 2.9102 4.9141zm16.91-6.3086c12.453-6.8125 22.633-16.996 29.445-29.441l1.3945-2.5508 1.3945 2.5508c6.8047 12.445 16.984 22.625 29.441 29.441l2.5508 1.3945-2.5508 1.3945c-12.457 6.8125-22.637 16.996-29.441 29.441l-1.3945 2.5508-1.3945-2.5508c-6.8125-12.445-16.992-22.629-29.445-29.441l-2.5508-1.3945z" fill="#FFF3E3"/>
  <path d="m411.08 220.16c2.0469 0 3.9297-1.1172 4.9141-2.9102l6.7422-12.316c6.207-11.355 15.492-20.637 26.844-26.848l12.32-6.7383c1.793-0.98047 2.9102-2.8672 2.9102-4.9141 0-2.0469-1.1172-3.9336-2.9102-4.9141l-12.32-6.7383c-11.352-6.2109-20.637-15.492-26.844-26.848l-6.7422-12.32c-1.9727-3.5938-7.8672-3.5898-9.8281 0l-6.7383 12.32c-6.207 11.352-15.492 20.637-26.848 26.848l-12.32 6.7383c-1.793 0.98438-2.9102 2.8672-2.9102 4.9141 0 2.0469 1.1172 3.9336 2.9102 4.9141l12.32 6.7383c11.355 6.207 20.641 15.492 26.848 26.848l6.7383 12.316c0.98047 1.793 2.8633 2.9102 4.9141 2.9102zm-33.121-51.902-3.3359-1.8242 3.3359-1.8242c13.238-7.2422 24.059-18.062 31.297-31.297l1.8242-3.3398 1.8281 3.3398c7.2383 13.23 18.062 24.055 31.293 31.297l3.3359 1.8242-3.3359 1.8242c-13.234 7.2422-24.059 18.062-31.293 31.297l-1.8281 3.3398-1.8242-3.3398c-7.2383-13.234-18.062-24.059-31.297-31.297z" fill="#FFF3E3"/>
  <path d="m263.07 109.57c-36.719 36.719-56.07 87.395-53.281 139.24-48.816 18.082-83.707 65.105-83.707 120.13 0 35.184 14.27 67.098 37.316 90.266 0.078125 0.089844 0.10547 0.20312 0.19141 0.28516 0.085937 0.085937 0.19922 0.11328 0.28516 0.19141 23.168 23.047 55.078 37.316 90.266 37.316 52.246 0 97.258-31.465 117.15-76.43 7.1992 0.83594 14.375 1.3125 21.508 1.3125 48.25 0 94.262-18.898 128.98-53.609 71.324-71.324 71.324-187.38 0-258.7-71.328-71.324-187.38-71.324-258.71 0zm-8.9297 142.51c7.6289 0 15.07 0.78906 22.297 2.1914l-136.96 136.96c-1.4023-7.2266-2.1914-14.668-2.1914-22.297 0-64.438 52.422-116.86 116.86-116.86zm111.5 81.887-146.47 146.47c-16.352-5.1406-31.082-13.871-43.473-25.137l164.81-164.81c11.266 12.391 19.996 27.121 25.137 43.473zm-197.86 113.42c-11.266-12.391-20-27.121-25.137-43.477l146.47-146.47c16.352 5.1406 31.082 13.871 43.477 25.137zm86.363 38.414c-7.6289 0-15.074-0.78906-22.301-2.1914l136.97-136.97c1.4023 7.2266 2.1914 14.672 2.1914 22.301 0 64.434-52.426 116.86-116.86 116.86zm259.71-125.45c-36.711 36.715-86.891 54.504-138.36 49.398 4.3242-12.828 6.707-26.543 6.707-40.812 0-35.184-14.27-67.098-37.316-90.266-0.078125-0.089844-0.10547-0.20312-0.19141-0.28516-0.085938-0.085938-0.19922-0.11328-0.28516-0.19141-23.168-23.047-55.082-37.316-90.266-37.316-11.508 0-22.656 1.5508-33.273 4.4102-1.75-47.652 16.34-94.023 50.121-127.8 66.961-66.953 175.91-66.953 242.86 0 66.957 66.961 66.957 175.91 0 242.87z" fill="#FFF3E3"/>
  <use x="70" y="644" xlink:href="#t" fill="#FFF3E3"/>
  <use x="90.550781" y="644" xlink:href="#e" fill="#FFF3E3"/>
  <use x="104.359375" y="644" xlink:href="#a" fill="#FFF3E3"/>
  <use x="123.347656" y="644" xlink:href="#d" fill="#FFF3E3"/>
  <use x="142.242188" y="644" xlink:href="#c" fill="#FFF3E3"/>
  <use x="155.628906" y="644" xlink:href="#a" fill="#FFF3E3"/>
  <use x="174.617188" y="644" xlink:href="#b" fill="#FFF3E3"/>
  <use x="204.410156" y="644" xlink:href="#i" fill="#FFF3E3"/>
  <use x="224.453125" y="644" xlink:href="#h" fill="#FFF3E3"/>
  <use x="252.453125" y="644" xlink:href="#g" fill="#FFF3E3"/>
  <use x="280.3125" y="644" xlink:href="#d" fill="#FFF3E3"/>
  <use x="299.210938" y="644" xlink:href="#b" fill="#FFF3E3"/>
  <use x="319.25" y="644" xlink:href="#a" fill="#FFF3E3"/>
  <use x="347.992188" y="644" xlink:href="#s" fill="#FFF3E3"/>
  <use x="375.796875" y="644" xlink:href="#g" fill="#FFF3E3"/>
  <use x="403.664062" y="644" xlink:href="#d" fill="#FFF3E3"/>
  <use x="422.554688" y="644" xlink:href="#b" fill="#FFF3E3"/>
  <use x="442.601562" y="644" xlink:href="#a" fill="#FFF3E3"/>
  <use x="70" y="672" xlink:href="#r" fill="#FFF3E3"/>
  <use x="82.183594" y="672" xlink:href="#e" fill="#FFF3E3"/>
  <use x="95.992188" y="672" xlink:href="#f" fill="#FFF3E3"/>
  <use x="115.226562" y="672" xlink:href="#q" fill="#FFF3E3"/>
  <use x="154.152344" y="672" xlink:href="#c" fill="#FFF3E3"/>
  <use x="167.535156" y="672" xlink:href="#p" fill="#FFF3E3"/>
  <use x="187.46875" y="672" xlink:href="#a" fill="#FFF3E3"/>
  <use x="216.207031" y="672" xlink:href="#o" fill="#FFF3E3"/>
  <use x="239.640625" y="672" xlink:href="#f" fill="#FFF3E3"/>
  <use x="258.878906" y="672" xlink:href="#n" fill="#FFF3E3"/>
  <use x="278.8125" y="672" xlink:href="#m" fill="#FFF3E3"/>
  <use x="308.492188" y="672" xlink:href="#l" fill="#FFF3E3"/>
  <use x="329.015625" y="672" xlink:href="#e" fill="#FFF3E3"/>
  <use x="342.820312" y="672" xlink:href="#f" fill="#FFF3E3"/>
  <use x="362.058594" y="672" xlink:href="#k" fill="#FFF3E3"/>
  <use x="371.65625" y="672" xlink:href="#a" fill="#FFF3E3"/>
  <use x="390.648438" y="672" xlink:href="#j" fill="#FFF3E3"/>
  <use x="407.242188" y="672" xlink:href="#c" fill="#FFF3E3"/>
 </g>
</svg>
