<?xml version="1.0" encoding="UTF-8"?>
<svg width="700pt" height="700pt" version="1.1" viewBox="0 0 700 700" xmlns="http://www.w3.org/2000/svg" xmlns:xlink="http://www.w3.org/1999/xlink">
 <g>
  <path d="m498.69 266.93 19.914-19.73 3.1523 3.1836-19.914 19.73z" fill="#FFF3E3"/>
  <path d="m497.25 235.77 3.1953-3.1484 8.2461 8.3672-3.1953 3.1484z" fill="#FFF3E3"/>
  <path d="m493.98 255.54-8.2578-8.3398 3.1836-3.1523 8.2578 8.3398z" fill="#FFF3E3"/>
  <path d="m453.15 299.7 25.848-25.59 3.1523 3.1836-25.848 25.59z" fill="#FFF3E3"/>
  <path d="m486.99 293.16c-0.92578 0.90625-1.4336 2.1328-1.4453 3.4219-0.003907 1.3008 0.50391 2.5352 1.4297 3.4609 0.90625 0.92578 2.0547 1.5586 3.4453 1.4375 1.2891 0 2.5039-0.50391 3.4219-1.418 0.92969-0.91406 1.4453-2.1406 1.4453-3.4453 0.011719-1.293-0.49219-2.5195-1.4102-3.4375-0.90625-0.91797-2.1328-1.4336-3.4258-1.4453h-0.027344c-1.3008 0.003906-2.5117 0.50781-3.4336 1.4258z" fill="#FFF3E3"/>
  <path d="m472.16 307.82c-1.9023 1.9023-1.9023 5-0.011718 6.8945 0.94141 0.95703 2.1914 1.4336 3.4453 1.4336 1.2383 0 2.4766-0.46875 3.4336-1.4062 1.9102-1.8945 1.9219-4.9883 0.035156-6.8867-1.875-1.8867-4.9727-1.9258-6.8828-0.054687z" fill="#FFF3E3"/>
  <path d="m561.53 230.25c2.2852-1.5781 4.6367-3.5625 7.1719-6.0586 3.9922-3.9609 7.043-7.8906 9.0703-11.699l-3.9414-2.1094c-1.8359 3.4062-4.6133 6.9844-8.2812 10.617-2.3477 2.3086-4.5039 4.1289-6.5703 5.5625z" fill="#FFF3E3"/>
  <path d="m94.652 236.81c1.7812 2.168 44.43 53.082 97.742 53.473h0.61719c26.723 0.003906 51.238-12.891 72.883-38.32 22.328-26.246 47.945-40.695 76.109-42.93 41.02-3.2578 75.977 20.492 85.855 27.949l-9.1562 9.1562c-9.3789 9.3789-11.879 15.602-8.4336 22.203-14.816 3.3594-38.527 11.395-54.395 30.023-3.1133 2.6328-32.594 27.871-44.973 49.801-7.7266 0.26953-34.57 2.4375-41.648 19.828l-1.2227 2.9922 54.504 24.691 1.5391-2.5352c7.5703-12.395 10.875-16.195 11.82-17.164 23.676-8.0938 51.418-39.168 55.156-43.438 7.2852-4.082 15.98-4.8164 24.414-5.5156 3.5898-0.30078 7.1016-0.58203 10.414-1.1367-7.7344 8.8711-16.199 19.629-23.133 31.098-3.9219 3.4766-32.641 29.52-41.344 52.879-2.7539 1.1719-8.5469 4.3008-19.465 12.543l-2.2773 1.7188 27.758 52.633 2.9609-1.5586c16.234-8.5508 18.121-31.969 18.312-39.188 22.031-12.188 47.512-41.367 50.191-44.453 19.512-16.211 35.746-37.309 44.031-49.012 3.3711 3.1523 6.3555 5.2695 10.074 5.668 0.37109 0.042969 0.76172 0.054688 1.1367 0.054688 4.7227 0 9.6562-2.9805 16.656-9.9844l2.4961-2.4961c0.55859 6.6523 1.707 13.523 3.7969 20.016l-5.0859 17.395c-1.332 1.8203-4.8203 7.2734-2.9609 12.062 1.2383 3.2383 5.8086 8.5195 12.105 10.074 1.0547 0.27344 2.2617 0.44141 3.6133 0.44141 3.1523 0 7-1.0234 10.969-4.4922 10.09-8.8125 10.031-26.953 9.8398-31.617 12.652-20.059 13.57-44.953 13.613-50.191 4.6133-8.1914 6.418-17.355 6.7031-26.258l17.141-17.125c13.895-13.91 11.492-20.172 3.4336-28.723 0.55859-0.5 1.1016-0.97266 1.6641-1.5234 20.395-20.211 22.055-51.727 3.707-70.262-8.9492-9.0273-21.152-13.73-34.562-13.047-13.211 0.60547-25.898 6.3125-35.734 16.043-0.68359 0.67578-1.2383 1.3477-1.8477 2.0234-8.5977-8.125-14.84-10.578-28.801 3.375l-4.543 4.5312c-7.957-3.8125-13.539-5.2305-15.746-5.6797-0.77344-7.2617-4.082-31.387-15.277-50.605l1.2812-18.082c0.91797-2.0703 3.1797-8.125 0.33984-12.426-1.9023-2.8945-7.5-7.0859-13.965-7.2812-3.6133-0.16406-8.8945 1.0234-13.379 7.0391-7.9961 10.77-4.0898 28.504-2.918 33.02-8.9023 24.484-2.7383 51.688-2.457 52.852 2.2734 18.906 11.137 33.656 19.5 43.758l-11.082 11.082c-9.6836-7.4883-46.48-33.254-91.133-29.836-30.027 2.3672-57.211 17.605-80.758 45.281-20.305 23.863-43.109 35.969-67.77 35.969-0.19531 0-0.37891 0-0.57031-0.011719-50.203-0.37109-92.191-50.52-92.605-51.031zm355.65-135.07-0.35156 1.2695-1.1992 16.805-15.977 1.1914c-1.2031-5.4492-3.2188-18.223 2.2188-25.555 2.2344-2.9961 4.75-4.5625 7.7773-4.3242 4.1328 0.125 7.8008 3.0977 8.5508 4.2617 0.77734 1.168-0.066406 4.4883-1.0195 6.3516zm65.18 74.109c-0.46484 0.6875-0.86719 1.3789-1.2656 2.0664-3.5664 5.0234-4.9336 10.09-4.6484 15.125-6.1992-4.793-11.922-8.4844-16.969-11.312l3.0352-3.0312c10.34-10.352 12.68-9.8516 19.848-2.8477zm59.551 61.535c-13.266 7.1445-25.582-0.64453-40.203-15.41-14.66-14.824-22.316-27.25-14.941-40.477 0.86328-1.1992 1.8555-2.3789 3.0352-3.5508 4.9336-4.8828 10.238-7.3008 16.09-7.3008 1.9609 0 3.9648 0.26953 6.0469 0.80469 7.5703 1.9531 15.793 7.3906 24.473 16.152 18.508 18.699 21.594 34.41 9.207 46.699-1.2227 1.2031-2.4648 2.2031-3.707 3.082zm17.77-19.344c-0.035156-10.793-6.1875-22.754-18.473-35.164-9.5469-9.6367-18.82-15.668-27.586-17.926-2.4922-0.64453-4.9102-0.95703-7.2852-0.99609 5.6992-2.7891 11.82-4.4453 18.098-4.7383 0.67578-0.027344 1.3555-0.042968 2.0234-0.042968 10.617 0 20.305 3.8984 27.43 11.105 12.258 12.352 13.945 31.551 5.793 47.762zm-14.543 43.277-12.59 12.582c-0.83984-10.871-3.4648-20.621-5.5312-26.828 1.6289 0.33203 3.2578 0.53125 4.8906 0.53125 4.5469 0 9.1211-1.3711 13.676-4.543 0.81641-0.46094 1.6406-0.97266 2.4531-1.5273 6.9453 7.1055 7.4141 9.457-2.8984 19.785zm-60.598 115.51 0.60938-1.1719 4.7266-16.16 15.859 2.2188c0.023437 5.5781-0.69922 18.496-7.5703 24.484-2.8242 2.4688-5.5898 3.332-8.5273 2.5977-4.0273-1.0039-6.9648-4.6758-7.4609-5.957-0.48828-1.2969 1.0469-4.3711 2.3633-6.0117zm-30.852-39.883c0.67578-1.0312 1.25-1.8828 1.5898-2.418 7.0156-4.0586 16.793-14.066 25.094-23.43-0.39063 4.4062-0.6875 9.7734-0.61719 15.586l-6.832 6.8281c-5.7344 5.7344-9.7148 8.1914-12.359 7.9961-1.9883-0.20312-4.1758-1.9492-6.875-4.5625zm-76.238-61.68c4.1094 10.328 12.828 17.383 22.59 17.836 0.33984 0.015625 0.66797 0.027344 1.0078 0.027344 8.5234 0 15.598-5.1172 19.023-13.867 5.5391-14.105 17.781-16.738 22.98-17.246l30.23 30.531 38.281-37.91-42.402-42.828-38.293 37.906 8.3203 8.4102c-7.0156 1.4688-17.965 5.9297-23.297 19.5-2.8398 7.2188-8.7539 11.324-15.664 11.004-6.5742-0.3125-14.379-4.8984-18.375-14.34 5.5898-1.1406 9.25-1.5078 9.375-1.5195l1.793-0.15625 0.86328-1.5977c6.9219-12.852 41.742-39.441 42.102-39.711l-4.0781-5.3477c-0.28125 0.20703-1.7266 1.3086-3.9102 3.0391-7.4609-6.1992-26.902-24.809-30.285-52.824-0.11719-0.61719-5.8984-26.039 1.7852-48.391l17.426-1.293c11.82 20.996 14.027 48.668 14.051 48.957l0.13281 1.9727 4.375 1.8711c0.18359 0.027344 18.75 3.0898 43.961 24.914 3.7188 7.8633 10.348 15.5 17.383 22.602 6.8945 6.9727 14.32 13.52 21.984 17.355 2.6641 6.8711 14.348 40.113 0.97266 62.715l-0.48047 0.81641 0.023437 0.95703c0 0.26953 0.26172 26.332-11.988 46.547l-17.316-2.4297c-6.082-20.059-2.7227-44.684-1.7305-50.855 4.7539-5.6836 8.082-9.9219 8.4688-10.426l-5.3047-4.1094c-0.27344 0.34766-27.211 34.895-40.117 41.688l-0.80078 0.42188-0.48047 0.76562c-0.21094 0.33594-21.609 33.875-48.805 56.352l-0.39844 0.39062c-0.29297 0.33203-28.191 32.75-50.152 44.031l-1.8711 0.97266 0.050781 2.1016c0.003906 0.25391 0.39062 23.703-11.898 33.348l-21.816-41.367c12.297-9.0781 16.375-10.27 16.555-10.32l1.7344-0.46875 0.67188-1.7344c7.7891-23.219 40.012-51.582 40.332-51.867l0.67188-0.8125c9.9219-16.508 23.262-31.703 32.715-41.531l-2.4297-2.3281-2.2969-2.4531c-4.6367 4.3672-12.371 5.0117-21.332 5.7578-8.9219 0.73828-19.02 1.5781-27.727 6.6875l-0.85156 0.69922c-0.29688 0.35156-29.949 34.562-53.184 42.105l-0.77734 0.35156c-1.0039 0.63281-4.1562 3.5664-12.465 16.93l-42.895-19.434c7.3086-10.629 27.758-12.797 35.852-12.828l2.043 0.023437 0.95703-1.8125c11.504-21.855 44.199-49.449 44.531-49.723l0.39844-0.41016c14.102-16.668 35.742-24.301 49.781-27.645zm62.914-25.535 28.746-28.441 32.957 33.281-28.746 28.449zm-50.062 1.1641 24.781-24.781c2.8789 3.0195 5.4805 5.4023 7.5469 7.1562-10.691 8.6953-27.551 23.195-33.734 32.969-1.1367 0.14062-2.8242 0.37109-4.8555 0.72266-2.7422-3.4141-3.2969-6.5 6.2617-16.066z" fill="#FFF3E3"/>
  <use x="70" y="644" xlink:href="#v" fill="#FFF3E3"/>
  <use x="90.550781" y="644" xlink:href="#d" fill="#FFF3E3"/>
  <use x="104.359375" y="644" xlink:href="#c" fill="#FFF3E3"/>
  <use x="123.347656" y="644" xlink:href="#b" fill="#FFF3E3"/>
  <use x="142.242188" y="644" xlink:href="#e" fill="#FFF3E3"/>
  <use x="155.628906" y="644" xlink:href="#c" fill="#FFF3E3"/>
  <use x="174.617188" y="644" xlink:href="#l" fill="#FFF3E3"/>
  <use x="204.410156" y="644" xlink:href="#f" fill="#FFF3E3"/>
  <use x="224.453125" y="644" xlink:href="#k" fill="#FFF3E3"/>
  <use x="252.453125" y="644" xlink:href="#j" fill="#FFF3E3"/>
  <use x="262.867188" y="644" xlink:href="#i" fill="#FFF3E3"/>
  <use x="282.804688" y="644" xlink:href="#b" fill="#FFF3E3"/>
  <use x="301.695312" y="644" xlink:href="#h" fill="#FFF3E3"/>
  <use x="331.378906" y="644" xlink:href="#g" fill="#FFF3E3"/>
  <use x="351.898438" y="644" xlink:href="#b" fill="#FFF3E3"/>
  <use x="370.796875" y="644" xlink:href="#f" fill="#FFF3E3"/>
  <use x="390.835938" y="644" xlink:href="#u" fill="#FFF3E3"/>
  <use x="400.4375" y="644" xlink:href="#a" fill="#FFF3E3"/>
  <use x="429.421875" y="644" xlink:href="#t" fill="#FFF3E3"/>
  <use x="450.761719" y="644" xlink:href="#d" fill="#FFF3E3"/>
  <use x="464.570312" y="644" xlink:href="#b" fill="#FFF3E3"/>
  <use x="483.464844" y="644" xlink:href="#s" fill="#FFF3E3"/>
  <use x="501.71875" y="644" xlink:href="#a" fill="#FFF3E3"/>
  <use x="70" y="672" xlink:href="#r" fill="#FFF3E3"/>
  <use x="82.183594" y="672" xlink:href="#d" fill="#FFF3E3"/>
  <use x="95.992188" y="672" xlink:href="#a" fill="#FFF3E3"/>
  <use x="115.226562" y="672" xlink:href="#q" fill="#FFF3E3"/>
  <use x="154.152344" y="672" xlink:href="#e" fill="#FFF3E3"/>
  <use x="167.535156" y="672" xlink:href="#p" fill="#FFF3E3"/>
  <use x="187.46875" y="672" xlink:href="#c" fill="#FFF3E3"/>
  <use x="216.207031" y="672" xlink:href="#o" fill="#FFF3E3"/>
  <use x="239.640625" y="672" xlink:href="#a" fill="#FFF3E3"/>
  <use x="258.878906" y="672" xlink:href="#i" fill="#FFF3E3"/>
  <use x="278.8125" y="672" xlink:href="#h" fill="#FFF3E3"/>
  <use x="308.492188" y="672" xlink:href="#g" fill="#FFF3E3"/>
  <use x="329.015625" y="672" xlink:href="#d" fill="#FFF3E3"/>
  <use x="342.820312" y="672" xlink:href="#a" fill="#FFF3E3"/>
  <use x="362.058594" y="672" xlink:href="#n" fill="#FFF3E3"/>
  <use x="371.65625" y="672" xlink:href="#c" fill="#FFF3E3"/>
  <use x="390.648438" y="672" xlink:href="#m" fill="#FFF3E3"/>
  <use x="407.242188" y="672" xlink:href="#e" fill="#FFF3E3"/>
 </g>
</svg>
