<?xml version="1.0" encoding="UTF-8"?>
<svg width="700pt" height="700pt" version="1.1" viewBox="0 0 700 700" xmlns="http://www.w3.org/2000/svg" xmlns:xlink="http://www.w3.org/1999/xlink">
 <g>
  <path d="m368.75 275.61c-0.097656 2.125 1.3125 4.0273 3.375 4.5508l23.07 5.8516v0.003907c4.1406 1.0547 7.8516 3.3672 10.629 6.6133 2.7773 3.25 4.4805 7.2773 4.8789 11.531l3.4727 37.551c0.41406 5.0273 7.8945 5.4727 8.8477 0.47266l6.9883-34.664v-0.003906c0.84766-4.1211 2.9258-7.8945 5.9609-10.809 3.0352-2.918 6.8867-4.8438 11.039-5.5234l24.977-4.0039c4.7773-0.69922 5.0273-7.8164 0.25781-8.7969l-23.02-5.0742c-4.1992-0.92578-8.0039-3.1367-10.891-6.3281-2.8828-3.1875-4.6992-7.1992-5.1992-11.469l-3.3086-28.348c-0.48047-4.7109-7.4023-5.375-8.7344-0.78516l-8.1758 26.879-0.003906 0.003906c-1.1445 3.7109-3.3047 7.0273-6.2344 9.5742-2.9297 2.5469-6.5156 4.2227-10.352 4.8359l-23.801 3.7266h0.003906c-2.1016 0.32812-3.6797 2.0898-3.7812 4.2109zm28.969 0.91016c14.727-2.5273 22.512-13.105 25.703-27.004 0.62891 15.793 7.7188 28.684 23.898 32.543-15.148 1.6992-25.371 13.605-27.035 28.41-0.37109-16.859-7.5039-29.617-24.738-33.605z" fill="#FFF3E3"/>
  <path d="m113.55 444.23 23.07 5.8516h0.003906c4.1406 1.0586 7.8516 3.3672 10.629 6.6172 2.7734 3.2461 4.4766 7.2734 4.875 11.527l3.4727 37.551c0.41797 5.0312 7.8945 5.4688 8.8477 0.47266l6.9922-34.664c0.84375-4.125 2.9219-7.8945 5.957-10.812 3.0391-2.9141 6.8867-4.8398 11.043-5.5195l24.977-4.0039c4.7773-0.69922 5.0273-7.8164 0.25391-8.7969l-23.02-5.0742c-4.1953-0.92969-8.0039-3.1406-10.887-6.3281-2.8828-3.1914-4.7031-7.1992-5.2031-11.473l-3.3086-28.348c-0.48047-4.7109-7.4023-5.375-8.7344-0.78516l-8.1758 26.879-0.003906 0.003906c-1.1406 3.7109-3.3008 7.0273-6.2305 9.5703-2.9297 2.5469-6.5156 4.2227-10.348 4.8359l-23.801 3.7266c-4.7148 0.66797-5.082 7.6562-0.41016 8.7695z" fill="#FFF3E3"/>
  <path d="m167.5 197.76 23.07 5.8516 0.003906 0.003907c4.1406 1.0547 7.8516 3.3633 10.629 6.6133 2.7773 3.2461 4.4805 7.2734 4.8789 11.531l3.4727 37.551c0.41797 5.0273 7.8945 5.4688 8.8477 0.47266l6.9961-34.664c0.84375-4.125 2.9219-7.8945 5.957-10.812 3.0352-2.918 6.8867-4.8398 11.043-5.5195l24.977-4.0039c4.7773-0.69922 5.0273-7.8164 0.25391-8.7969l-23.02-5.0742v-0.003906c-4.1992-0.92578-8.0039-3.1367-10.891-6.3281-2.8828-3.1875-4.6992-7.1992-5.1992-11.469l-3.3086-28.348c-0.48047-4.7109-7.4023-5.375-8.7344-0.78516l-8.1758 26.879-0.003906 0.003906c-1.1445 3.7109-3.3008 7.0273-6.2344 9.5742-2.9297 2.5469-6.5156 4.2227-10.352 4.8359l-23.801 3.7266c-4.7148 0.66797-5.082 7.6523-0.41016 8.7617zm25.594-3.6406c14.734-2.5273 22.512-13.098 25.707-27.008 0.65234 15.832 7.6797 28.648 23.898 32.547-15.148 1.6992-25.371 13.602-27.035 28.406-0.37109-16.859-7.5039-29.617-24.742-33.605z" fill="#FFF3E3"/>
  <path d="m467.15 100.39 23.07 5.8516v0.003907c4.1406 1.0547 7.8516 3.3672 10.629 6.6133 2.7773 3.25 4.4805 7.2773 4.8789 11.531l3.4727 37.551c0.41797 5.0273 7.8945 5.4688 8.8477 0.47266l6.9922-34.664v-0.003906c0.84375-4.125 2.9219-7.8945 5.957-10.809 3.0352-2.918 6.8867-4.8438 11.039-5.5234l24.977-4.0039c4.7773-0.69922 5.0273-7.8164 0.25391-8.7969l-23.02-5.0742h0.003906c-4.1992-0.92578-8.0039-3.1406-10.891-6.3281-2.8828-3.1914-4.6992-7.1992-5.1992-11.469l-3.3086-28.348c-0.48047-4.7148-7.4062-5.375-8.7344-0.78516l-8.1758 26.879-0.003906 0.003906c-1.1445 3.707-3.3047 7.0234-6.2344 9.5703-2.9336 2.5469-6.5195 4.2227-10.352 4.8359l-23.801 3.7227c-4.7109 0.67187-5.0781 7.6602-0.40234 8.7695z" fill="#FFF3E3"/>
  <path d="m140.49 350.18c4.8984-3.3945-0.027344-10.762-5.0391-7.5352-4.8906 3.3906 0.03125 10.758 5.0391 7.5352z" fill="#FFF3E3"/>
  <path d="m195.59 369.65c-4.8984 3.3945 0.027344 10.762 5.0391 7.5391 4.8906-3.3984-0.03125-10.766-5.0391-7.5391z" fill="#FFF3E3"/>
  <path d="m258.7 291.22c-4.8984 3.3945 0.027344 10.762 5.0391 7.5352 4.8945-3.3906-0.03125-10.762-5.0391-7.5352z" fill="#FFF3E3"/>
  <path d="m154.93 285.59c4.8984-3.3945-0.027344-10.762-5.0391-7.5352-4.8945 3.3945 0.027344 10.762 5.0391 7.5352z" fill="#FFF3E3"/>
  <path d="m96.492 410.14c4.8984-3.3945-0.027344-10.762-5.0391-7.5391-4.8945 3.4023 0.03125 10.766 5.0391 7.5391z" fill="#FFF3E3"/>
  <path d="m115.3 503.91c4.8984-3.3945-0.027344-10.762-5.0391-7.5391-4.8945 3.3984 0.03125 10.77 5.0391 7.5391z" fill="#FFF3E3"/>
  <path d="m178.16 531.7c-4.8984 3.3945 0.027344 10.762 5.0391 7.5391 4.8945-3.3984-0.03125-10.766-5.0391-7.5391z" fill="#FFF3E3"/>
  <path d="m268.29 488.62c3.3945 4.8984 10.762-0.027344 7.5391-5.0391-3.3945-4.8984-10.762 0.03125-7.5391 5.0391z" fill="#FFF3E3"/>
  <path d="m283.65 397.5c4.8984-3.3945-0.027344-10.762-5.0391-7.5352-4.8945 3.3945 0.03125 10.762 5.0391 7.5352z" fill="#FFF3E3"/>
  <path d="m511.75 268.18c-4.8984 3.3945 0.027344 10.762 5.0391 7.5391 4.8945-3.3984-0.03125-10.766-5.0391-7.5391z" fill="#FFF3E3"/>
  <path d="m369.1 384.86c4.8984-3.3945-0.027344-10.762-5.0391-7.5391-4.8906 3.3945 0.03125 10.758 5.0391 7.5391z" fill="#FFF3E3"/>
  <path d="m320.76 330.42c4.8984-3.3945-0.027344-10.762-5.0391-7.5391-4.8945 3.3984 0.03125 10.766 5.0391 7.5391z" fill="#FFF3E3"/>
  <path d="m323.24 221.32c4.8984-3.3945-0.027343-10.762-5.0391-7.5352-4.8945 3.3906 0.03125 10.762 5.0391 7.5352z" fill="#FFF3E3"/>
  <path d="m369.1 153.27c4.8984-3.3945-0.027344-10.762-5.0391-7.5352-4.8906 3.3945 0.03125 10.762 5.0391 7.5352z" fill="#FFF3E3"/>
  <path d="m438.27 192.86c4.8984-3.3945-0.027344-10.762-5.0391-7.5391-4.8945 3.3945 0.03125 10.766 5.0391 7.5391z" fill="#FFF3E3"/>
  <path d="m520.82 185.32c-4.8984 3.3945 0.027344 10.762 5.0391 7.5391 4.8945-3.3945-0.027344-10.762-5.0391-7.5391z" fill="#FFF3E3"/>
  <path d="m442.8 80.035c4.8984-3.3945-0.027344-10.762-5.0391-7.5352-4.8945 3.3945 0.03125 10.762 5.0391 7.5352z" fill="#FFF3E3"/>
  <path d="m373.63 80.035c4.8984-3.3945-0.027343-10.762-5.0391-7.5352-4.8945 3.3945 0.03125 10.762 5.0391 7.5352z" fill="#FFF3E3"/>
  <path d="m522.39 28.305c4.8984-3.3945-0.027344-10.762-5.0391-7.5352-4.8945 3.3945 0.03125 10.762 5.0391 7.5352z" fill="#FFF3E3"/>
  <path d="m608.54 32.84c4.8984-3.3945-0.027344-10.762-5.0391-7.5391-4.8945 3.3945 0.03125 10.762 5.0391 7.5391z" fill="#FFF3E3"/>
  <path d="m601.36 132.91c4.8984-3.3945-0.027343-10.762-5.0391-7.5391-4.8906 3.3984 0.03125 10.766 5.0391 7.5391z" fill="#FFF3E3"/>
  <use x="70" y="576.800781" xlink:href="#v" fill="#FFF3E3"/>
  <use x="74.109375" y="576.800781" xlink:href="#d" fill="#FFF3E3"/>
  <use x="76.871094" y="576.800781" xlink:href="#a" fill="#FFF3E3"/>
  <use x="80.667969" y="576.800781" xlink:href="#e" fill="#FFF3E3"/>
  <use x="84.449219" y="576.800781" xlink:href="#c" fill="#FFF3E3"/>
  <use x="87.125" y="576.800781" xlink:href="#a" fill="#FFF3E3"/>
  <use x="90.921875" y="576.800781" xlink:href="#k" fill="#FFF3E3"/>
  <use x="96.882812" y="576.800781" xlink:href="#j" fill="#FFF3E3"/>
  <use x="100.890625" y="576.800781" xlink:href="#i" fill="#FFF3E3"/>
  <use x="106.488281" y="576.800781" xlink:href="#h" fill="#FFF3E3"/>
  <use x="112.0625" y="576.800781" xlink:href="#e" fill="#FFF3E3"/>
  <use x="115.839844" y="576.800781" xlink:href="#u" fill="#FFF3E3"/>
  <use x="119.453125" y="576.800781" xlink:href="#t" fill="#FFF3E3"/>
  <use x="121.375" y="576.800781" xlink:href="#g" fill="#FFF3E3"/>
  <use x="124.691406" y="576.800781" xlink:href="#b" fill="#FFF3E3"/>
  <use x="128.539062" y="576.800781" xlink:href="#f" fill="#FFF3E3"/>
  <use x="132.527344" y="576.800781" xlink:href="#s" fill="#FFF3E3"/>
  <use x="70" y="582.398437" xlink:href="#r" fill="#FFF3E3"/>
  <use x="72.4375" y="582.398437" xlink:href="#d" fill="#FFF3E3"/>
  <use x="75.199219" y="582.398437" xlink:href="#b" fill="#FFF3E3"/>
  <use x="79.046875" y="582.398437" xlink:href="#q" fill="#FFF3E3"/>
  <use x="86.828125" y="582.398437" xlink:href="#c" fill="#FFF3E3"/>
  <use x="89.507812" y="582.398437" xlink:href="#p" fill="#FFF3E3"/>
  <use x="93.492188" y="582.398437" xlink:href="#a" fill="#FFF3E3"/>
  <use x="99.242188" y="582.398437" xlink:href="#o" fill="#FFF3E3"/>
  <use x="103.929688" y="582.398437" xlink:href="#b" fill="#FFF3E3"/>
  <use x="107.773438" y="582.398437" xlink:href="#n" fill="#FFF3E3"/>
  <use x="111.761719" y="582.398437" xlink:href="#f" fill="#FFF3E3"/>
  <use x="117.699219" y="582.398437" xlink:href="#m" fill="#FFF3E3"/>
  <use x="121.800781" y="582.398437" xlink:href="#d" fill="#FFF3E3"/>
  <use x="124.5625" y="582.398437" xlink:href="#b" fill="#FFF3E3"/>
  <use x="128.410156" y="582.398437" xlink:href="#l" fill="#FFF3E3"/>
  <use x="130.332031" y="582.398437" xlink:href="#a" fill="#FFF3E3"/>
  <use x="134.128906" y="582.398437" xlink:href="#g" fill="#FFF3E3"/>
  <use x="137.449219" y="582.398437" xlink:href="#c" fill="#FFF3E3"/>
 </g>
</svg>
