<?xml version="1.0" encoding="UTF-8"?>
<svg width="700pt" height="700pt" version="1.1" viewBox="0 0 700 700" xmlns="http://www.w3.org/2000/svg" xmlns:xlink="http://www.w3.org/1999/xlink">
 <g>
  <path d="m178.15 56c-28.809 0-52.242 23.406-52.242 52.172 0 28.77 23.438 52.176 52.242 52.176 28.809 0 52.242-23.406 52.242-52.176 0-28.766-23.434-52.172-52.242-52.172zm0 93.148c-22.633 0-41.043-18.379-41.043-40.977 0-22.59 18.41-40.973 41.043-40.973 22.633 0 41.043 18.379 41.043 40.973 0 22.598-18.41 40.977-41.043 40.977z" fill="#FFF3E3"/>
  <path d="m444.5 56.645c-2.75-1.4102-6.1289-0.3125-7.5312 2.4375-1.4062 2.7578-0.3125 6.1289 2.4414 7.5352 109.15 55.738 153.43 188.8 100.4 298.61-4.8008-1.9609-10.039-3.0586-15.535-3.0586-22.723 0-41.207 18.461-41.207 41.152 0 10.168 3.7344 19.473 9.875 26.66-68.773 66.098-171.12 81.711-256.75 38.906 5.1406-12.203 6.1406-26.211 1.75-39.766-4.707-14.531-14.793-26.363-28.398-33.309-13.609-6.9492-29.109-8.1875-43.641-3.4727-14.535 4.7031-26.367 14.793-33.316 28.398s-8.1797 29.105-3.4727 43.645c4.707 14.531 14.793 26.363 28.398 33.309 8.1758 4.1719 17.031 6.2891 25.953 6.2852 5.9297 0 11.887-0.92969 17.688-2.8125 12.621-4.0898 22.812-12.207 29.711-22.438 33.887 17.008 70.27 25.328 106.34 25.328 59.938 0 118.95-22.918 164.08-66.59 6.5703 4.4258 14.477 7.0117 22.98 7.0117 22.723 0 41.207-18.461 41.207-41.152 0-13.188-6.2695-24.914-15.957-32.449 56.242-115.42 9.8047-255.58-105.02-314.23zm-246.79 433.86c-11.688 3.7852-24.148 2.8008-35.094-2.793-10.941-5.5898-19.055-15.098-22.84-26.793-3.7852-11.688-2.793-24.156 2.793-35.098 5.5859-10.941 15.102-19.055 26.793-22.836 4.668-1.5078 9.457-2.2578 14.227-2.2578 7.1719 0 14.297 1.6953 20.867 5.0547 10.941 5.5898 19.055 15.098 22.84 26.793 7.8164 24.121-5.457 50.109-29.586 57.93zm356.57-87.188c0 16.516-13.461 29.953-30.008 29.953-16.547 0-30.008-13.438-30.008-29.953 0-16.516 13.461-29.953 30.008-29.953 16.547 0 30.008 13.438 30.008 29.953z" fill="#FFF3E3"/>
  <path d="m185.92 274.4c0 87.387 71.094 158.48 158.48 158.48 87.383 0 158.48-71.094 158.48-158.48 0-87.383-71.094-158.48-158.48-158.48-87.383 0-158.48 71.094-158.48 158.48zm266.44 100.04-208-208c17.961-16.656 40.062-28.891 64.578-34.977l178.4 178.39c-6.0859 24.516-18.32 46.617-34.977 64.582zm-72.5 42.895-178.39-178.4c6.0859-24.516 18.32-46.613 34.977-64.578l208 208c-17.965 16.656-40.066 28.891-64.582 34.977zm-182.74-142.94c0-7.5742 0.57812-15.016 1.6836-22.285l167.88 167.88c-7.2656 1.1094-14.707 1.6875-22.281 1.6875-81.211 0-147.28-66.07-147.28-147.28zm294.56 0c0 7.5742-0.57813 15.012-1.6836 22.281l-167.88-167.88c7.2695-1.1055 14.707-1.6836 22.281-1.6836 81.211 0 147.28 66.066 147.28 147.28z" fill="#FFF3E3"/>
  <use x="70" y="644" xlink:href="#s" fill="#FFF3E3"/>
  <use x="90.550781" y="644" xlink:href="#e" fill="#FFF3E3"/>
  <use x="104.359375" y="644" xlink:href="#a" fill="#FFF3E3"/>
  <use x="123.347656" y="644" xlink:href="#d" fill="#FFF3E3"/>
  <use x="142.242188" y="644" xlink:href="#c" fill="#FFF3E3"/>
  <use x="155.628906" y="644" xlink:href="#a" fill="#FFF3E3"/>
  <use x="174.617188" y="644" xlink:href="#b" fill="#FFF3E3"/>
  <use x="204.410156" y="644" xlink:href="#i" fill="#FFF3E3"/>
  <use x="224.453125" y="644" xlink:href="#h" fill="#FFF3E3"/>
  <use x="252.453125" y="644" xlink:href="#g" fill="#FFF3E3"/>
  <use x="280.3125" y="644" xlink:href="#d" fill="#FFF3E3"/>
  <use x="299.210938" y="644" xlink:href="#b" fill="#FFF3E3"/>
  <use x="319.25" y="644" xlink:href="#a" fill="#FFF3E3"/>
  <use x="347.992188" y="644" xlink:href="#i" fill="#FFF3E3"/>
  <use x="368.03125" y="644" xlink:href="#h" fill="#FFF3E3"/>
  <use x="396.03125" y="644" xlink:href="#g" fill="#FFF3E3"/>
  <use x="423.898438" y="644" xlink:href="#d" fill="#FFF3E3"/>
  <use x="442.789062" y="644" xlink:href="#b" fill="#FFF3E3"/>
  <use x="462.835937" y="644" xlink:href="#a" fill="#FFF3E3"/>
  <use x="70" y="672" xlink:href="#r" fill="#FFF3E3"/>
  <use x="82.183594" y="672" xlink:href="#e" fill="#FFF3E3"/>
  <use x="95.992188" y="672" xlink:href="#f" fill="#FFF3E3"/>
  <use x="115.226562" y="672" xlink:href="#q" fill="#FFF3E3"/>
  <use x="154.152344" y="672" xlink:href="#c" fill="#FFF3E3"/>
  <use x="167.535156" y="672" xlink:href="#p" fill="#FFF3E3"/>
  <use x="187.46875" y="672" xlink:href="#a" fill="#FFF3E3"/>
  <use x="216.207031" y="672" xlink:href="#o" fill="#FFF3E3"/>
  <use x="239.640625" y="672" xlink:href="#f" fill="#FFF3E3"/>
  <use x="258.878906" y="672" xlink:href="#n" fill="#FFF3E3"/>
  <use x="278.8125" y="672" xlink:href="#m" fill="#FFF3E3"/>
  <use x="308.492188" y="672" xlink:href="#l" fill="#FFF3E3"/>
  <use x="329.015625" y="672" xlink:href="#e" fill="#FFF3E3"/>
  <use x="342.820312" y="672" xlink:href="#f" fill="#FFF3E3"/>
  <use x="362.058594" y="672" xlink:href="#k" fill="#FFF3E3"/>
  <use x="371.65625" y="672" xlink:href="#a" fill="#FFF3E3"/>
  <use x="390.648438" y="672" xlink:href="#j" fill="#FFF3E3"/>
  <use x="407.242188" y="672" xlink:href="#c" fill="#FFF3E3"/>
 </g>
</svg>
