 <svg width="100" height="100" viewBox="0 0 1019 1019" fill="none" xmlns="http://www.w3.org/2000/svg">
            <path d="M1019 509.5C1019 790.889 790.889 1019 509.5 1019C228.111 1019 0 790.889 0 509.5C0 228.111 228.111 0 509.5 0C790.889 0 1019 228.111 1019 509.5Z" fill="grey"/>
            <path d="M646.5 191.5L419 419H282.5L146 601C146 601 290.599 560.732 374.956 579.615L146 874L445.936 640.721C487.751 736.453 419 874 419 874L601 737.5V601L828.5 373.5L874 146L646.5 191.5Z" fill="black"/>
            </svg>